<svg xmlns="http://www.w3.org/2000/svg" width="512" height="512" viewBox="0 0 512 512"><path fill="currentColor" d="M255.604 512q-55.626 0-102.378-18.432t-81.22-52.224a232.19 232.24 0 0 1-53.237-78.848Q0 317.098 0 263.85q0-63.489 19.452-112.64 19.793-49.152 54.602-82.603a236.607 236.658 0 0 1 81.22-51.2Q201.684 0 254.58 0q64.84 0 113.64 20.139t81.22 54.613a221.933 221.98 0 0 1 48.118 78.848q15.698 44.032 14.333 92.16-1.707 66.218-27.642 101.717-25.936 35.158-80.538 35.158a110.701 110.725 0 0 1-53.578-13.312 70.205 70.22 0 0 1-33.443-39.254l19.793 1.024q-13.992 26.283-38.221 36.864a122.55 122.577 0 0 1-49.483 10.582q-34.467 0-60.744-14.678a107.725 107.748 0 0 1-41.293-41.984q-15.015-26.965-15.015-62.464 0-36.522 15.698-63.146a109.393 109.416 0 0 1 42.316-41.643q26.618-14.677 60.062-14.677 22.182 0 46.07 9.216 24.23 9.215 37.539 25.941l-13.992 17.75v-43.35h45.729l-1.024 122.539q0 26.282 10.238 39.594t30.372 13.312q17.745 0 27.3-9.898 9.898-10.24 13.651-27.648a202.102 202.145 0 0 0 4.778-39.936q1.024-52.906-15.698-89.088t-45.388-58.368a180.09 180.13 0 0 0-62.45-32.427q-34.126-10.24-67.911-10.24-47.777 0-84.974 15.36-37.197 15.018-62.792 42.667-25.254 27.306-38.221 64.853-12.627 37.206-11.944 81.92 1.365 44.373 16.039 79.872a176.773 176.81 0 0 0 40.951 60.757 177.835 177.873 0 0 0 62.11 38.57q35.832 13.313 78.49 13.313 23.888 0 47.435-5.461 23.888-5.12 43.681-14.678l19.452 53.248q-26.277 12.288-55.284 18.09A277.73 277.788 0 0 1 255.604 512m-2.73-191.488q24.23 0 40.61-13.995t16.38-47.445q.001-30.379-14.674-45.739-14.333-15.7-40.61-15.701-31.054 0-46.411 16.384t-15.357 45.056q0 29.355 15.698 45.397 16.04 16.043 44.364 16.043"/></svg>
