<svg xmlns="http://www.w3.org/2000/svg" width="512" height="512" viewBox="0 0 512 512"><path d="M383.297 0c-86.799.193-173.622-.387-260.406.293C91.647 2.616 68.274 33.663 72 64.254c.195 132.282-.39 264.589.293 396.856 2.324 31.243 33.37 54.616 63.961 50.89 84.277-.193 168.578.387 252.84-.293 31.244-2.324 54.633-33.364 50.906-63.96-.195-132.282.39-264.59-.293-396.856C437.32 22.647 411.657-.528 383.297 0M260 483.984c-25.124.039-12.705-40.928 8.2-26.825 11.992 7.41 5.886 27.373-8.2 26.825M392 424H120V64h272z" fill="currentColor"/></svg>
