<svg xmlns="http://www.w3.org/2000/svg" width="512" height="512" viewBox="0 0 512 512"><path d="M205.02 8v48c84.912-1.302 165.976 57.982 190.562 139.254 26.923 80.274-4.655 175.224-74.23 223.45-33.633 24.153-74.925 37.393-116.332 37.296v48c101.021 1.348 198.177-66.018 232.289-161.127 9.34-24.013 14.386-49.357 15.478-74.873h56.746c6.386-2.565 1.15-16.751 2.852-24h-59.742c-3.57-66.321-33.392-131.355-84.446-174.746C323.56 30.035 264.447 7.803 205.02 8m-7.583 99.375c-24.466-.034-48.996 6.317-71.064 20.453C81.377 151.044 57.181 196.654 53.682 244H0v24h53.682c3.5 47.346 27.695 92.956 72.691 116.172 92.267 59.114 227.06-18.71 222-128.172l-.63-13.656c-4.076-77.289-76.906-134.866-150.305-134.969" fill="currentColor"/></svg>
