<svg xmlns="http://www.w3.org/2000/svg" width="512" height="512" viewBox="0 0 512 512"><path d="M477.984 39.203c-149.148.117-298.307-.234-447.448.176C9.174 40.85-2.968 62.942 0 82.612c.117 92.683-.234 185.378.176 278.053 1.47 21.364 23.561 33.508 43.233 30.539H220c3.505 21.503-14.03 43.925-36.7 41.594H136v40h240v-40c-20.01-.728-40.332 1.628-60.103-1.53-17.196-4.784-25.98-23.24-23.897-40.064 63.153-.117 126.318.234 189.464-.176 21.363-1.471 33.504-23.563 30.536-43.233-.117-92.683.234-185.378-.176-278.053-1.405-16.919-16.855-30.88-33.84-30.539M464 315.859c-1.926 16.012-20.35 10.281-31.472 11.344H59.344c-16.012-1.926-10.281-20.35-11.344-31.472V98.547c1.926-16.012 20.35-10.281 31.472-11.344h373.185c16.012 1.926 10.281 20.35 11.344 31.472q.001 98.594-.001 197.184" fill="currentColor"/></svg>
