<svg xmlns="http://www.w3.org/2000/svg" width="512" height="512" viewBox="0 0 512 512"><path d="M203.438.803c-20.452.398-33.305 21.929-30.272 40.809v86.775H93c.022 72.506-.044 145.101.033 217.552.921 60.996 67.618 92.449 114.967 105.73V512h96v-62.756c57.612-7.761 120.68-53.948 115-116.971V128.387h-80.082c-.497-34.304 1.04-68.763-.822-102.968-4.69-24-39.098-33.539-54.642-14.066-13.352 15.155-7.08 36.256-8.538 54.578v62.456h-37.748c-.498-34.325 1.04-68.806-.822-103.032C232.942 10.77 218.474-.275 203.438.803" fill="currentColor"/></svg>
