<svg xmlns="http://www.w3.org/2000/svg" width="512" height="512"><path d="M365.843 53.007c-13.656-.064-27.515.27-40.651 1.832-5.674 39.738-16.267 86.565-19.066 130.908 18.832 9.712 53.141 11.448 76.262 11.438 2.295-43.015 15.456-92.583 22.88-143.617-12.319-.033-25.77-.496-39.425-.56m-167.755 107.32c-4.236 4.1-5.41 7.067-5.799 12.79-11.802 40.772-34.04 72.108-51.318 104.535-38.1 47.74-64.269 74.477-86.165 92.153-20.215-10.201-42.085-22.094-53.729-26.461v7.626c13.27 9.954 33.744 14.12 45.502 23.639C36.519 387.9 13.043 394.614 0 397.875l1.077 3.932c21.07-7.032 33.299-13.114 49.149-20.364 5.463-3.521 7.175-.394 10.987 1.46 74.008 44.665 146.132 59.465 224.577 74.826v-2.542c-74.811-23.37-151.413-44.281-212.772-74.966-2.64-1.675-8.017-4.197-10.499-6.106 38.485-20.775 85.572-60.882 113.42-90.039 21.131-26.21 46.988-56.186 60.28-83.078l4.21-1.35c4.687-1.192 4.687-1.192 8.342-4.13 2.77-3.505 3.972-5.317 3.972-9.771-14.02-11.84-31.455-20.471-54.655-25.42m225.877 4.59c-.798.051-1.525.212-2.174.495 11.969 46.896 46.446 97.522 50.841 152.513 4.325 3.266 7.083 3.722 12.413 3.992 9.438-.242 17.439-2.444 24.447-9.076 10.522-31.678-13.88-91.37-39.402-118.198-6.657-6.478-34.157-30.481-46.125-29.725m-117.839 33.54c-3.432 29.526-11.247 66.555-12.71 97.862 13.752 14.146 47.652 10.687 67.365 11.439 2.637-32.627 15.182-61.677 16.523-99.134-22.376-2.928-46.647-8.124-71.178-10.168m-2.542 113.113c-5.417 15.97-7.115 36.471-15.252 53.38-4.483 4.484-7.693 9.413-10.169 15.251-1.016 7.518-1.465 14.934 2.542 21.606l1.669 2.701 2.145 3.654c8.481 14.174 12.237 30.536 11.618 46.99l-.18 2.577 3.814 1.271c5.735-22.582 7.143-49.006 11.44-73.715-6.788-2.262-5.114-11.372-1.272-16.522 4.342-.636 4.342-.636 8.898 0 3.339 1.855 3.339 1.855 5.084 5.084.41 3.895.41 3.895-1.271 7.625-3.813 2.305-3.813 2.305-7.627 5.084-5.338 22.474-6.952 48.305-10.168 72.444h2.542c2.653-5.206 5.338-10.392 7.686-15.743 3.36-7.889 6.628-15.323 12.984-21.258 7.846-6.764 15.199-13.397 20.003-22.733 1.113-5.94.63-10.823-1.27-16.523-2.168-6.4-2.965-12.248-3.28-18.997l-.137-3.641c-.664-13.425 1.174-27.652.874-42.18-12.549-3.569-26.676-3.961-40.673-6.355" fill="currentColor"/></svg>
