<svg width="512" height="512" viewBox="0 0 512 512">
  <style>.tatami{background: repeating-linear-gradient(90deg,#d6e3c4,#d6e3c4 4px,#b0c59a 4px,#b0c59a 8px);}.paper {fill: #fff;}circle {fill: #f00;}.hollow {stroke: #000;}.frame {fill: #000; stroke: #000;}@media (prefers-color-scheme: dark) {.paper {fill: #000;}circle {fill: #0f0;}.frame {fill: #fff; stroke: #fff;}.hollow {stroke: #fff;}}</style>
  <defs>
    <pattern id="vertical-lines" patternUnits="userSpaceOnUse" width="8" height="8">
      <line x1="8" y1="0" x2="8" y2="8" stroke="#d6e3c4" stroke-width="8" />
    </pattern>
  </defs>
  <rect x="0" y="0" width="512" height="512" fill="#b0c59a" />
  <rect x="0" y="0" width="512" height="512" fill="url(#vertical-lines)" />
  <path class="paper" d="M115.393 167.217h281.183v180.136H115.393z" style="opacity:1;fill-opacity:1;stroke:#000;stroke-width:0;stroke-linecap:square;stroke-linejoin:miter;stroke-miterlimit:4;stroke-dasharray:none;stroke-opacity:1" />
  <circle cx="256" cy="256" r="51.2" style="opacity:1;fill-opacity:1;stroke:#000;stroke-width:0;stroke-linecap:square;stroke-linejoin:miter;stroke-miterlimit:4;stroke-dasharray:none;stroke-opacity:1" />
  <path class="hollow" d="M256.764 153.433v204.151" style="fill:red;stroke-width:20.3426;stroke-linecap:butt;stroke-linejoin:miter;stroke-dasharray:none;stroke-opacity:1" />
  <path class="frame" d="M92.16 140.16v231.68h148.694l14.602-14.104v-1.05l.544.525.544-.525v1.05l14.602 14.104H419.84V140.16H270.523l-13.98 13.501c.003.54.123 1.339-.482.607-.486.295-.73.54-.596-.233-.169-.959-1.327-1.443-1.904-2.204l-12.084-11.671Zm29.597 29.597h268.486v172.486H121.758Z" style="stroke-width:.64;stroke-linecap:square;-inkscape-stroke:none" />
</svg>
