<?xml version="1.0" encoding="UTF-8" standalone="no"?>
<svg
   version="1.0"
   width="512"
   height="512"
   viewBox="0 0 512 512"
   id="svg1"
   sodipodi:docname="vunga-ouhou.svg"
   inkscape:version="1.2.2 (b0a8486541, 2022-12-01)"
   xml:space="preserve"
   xmlns:inkscape="http://www.inkscape.org/namespaces/inkscape"
   xmlns:sodipodi="http://sodipodi.sourceforge.net/DTD/sodipodi-0.dtd"
   xmlns="http://www.w3.org/2000/svg"
   xmlns:svg="http://www.w3.org/2000/svg"
   xmlns:rdf="http://www.w3.org/1999/02/22-rdf-syntax-ns#"
   xmlns:cc="http://creativecommons.org/ns#"
   xmlns:dc="http://purl.org/dc/elements/1.1/"><metadata
     id="metadata876"><rdf:RDF><cc:Work
         rdf:about=""><dc:format>image/svg+xml</dc:format><dc:type
           rdf:resource="http://purl.org/dc/dcmitype/StillImage" /></cc:Work></rdf:RDF></metadata><defs
     id="defs878" /><sodipodi:namedview
     pagecolor="#ffffff"
     bordercolor="#666666"
     borderopacity="1"
     objecttolerance="10"
     gridtolerance="10"
     guidetolerance="10"
     inkscape:pageopacity="0"
     inkscape:pageshadow="2"
     inkscape:window-width="1920"
     inkscape:window-height="1022"
     showgrid="false"
     inkscape:pagecheckerboard="true"
     inkscape:zoom="1.5410156"
     inkscape:cx="296.88213"
     inkscape:cy="257.94677"
     inkscape:window-x="0"
     inkscape:window-y="36"
     inkscape:window-maximized="1"
     inkscape:current-layer="svg1"
     showguides="true"
     id="namedview884"
     inkscape:showpageshadow="2"
     inkscape:deskcolor="#d1d1d1"><sodipodi:guide
       position="256,256"
       orientation="0,1"
       inkscape:locked="false"
       inkscape:label=""
       inkscape:color="rgb(0,0,255)"
       id="guide880" /><sodipodi:guide
       position="256,256"
       orientation="-1,0"
       inkscape:locked="false"
       inkscape:label=""
       inkscape:color="rgb(0,0,255)"
       id="guide882" /></sodipodi:namedview><path
     id="rect289"
     style="stroke-width:23.3661;stroke-miterlimit:8"
     d="M 255.65234 76.248047 C 255.54783 80.817362 252.69864 84.876473 251.43359 89.230469 C 230.09028 144.7686 208.74566 200.30756 187.40234 255.8457 L 187.34375 255.8457 C 187.35351 255.8711 187.36329 255.89648 187.37305 255.92188 C 187.36307 255.94784 187.35373 255.97404 187.34375 256 L 187.40234 256 C 208.74566 311.53815 230.09028 367.07711 251.43359 422.61523 C 252.69864 426.96923 255.54783 431.02834 255.65234 435.59766 C 256.14916 433.89056 256.52082 436.28113 256.3457 433.79297 C 279.11521 374.54371 301.88673 315.2942 324.65625 256.04492 L 273.08594 256.04492 C 268.0818 255.92404 262.6687 256.21023 257.83203 255.92188 C 262.66867 255.63354 268.08183 255.92165 273.08594 255.80078 L 324.65625 255.80078 C 301.88673 196.55149 279.11521 137.30202 256.3457 78.052734 C 256.52082 75.564587 256.14916 77.955145 255.65234 76.248047 z " /><path
     style="fill:#000000;stroke:#000000;stroke-width:1px;stroke-linecap:butt;stroke-linejoin:miter;stroke-opacity:1"
     d="M 306.19044,167.73543 343.61558,256.31013 314.39196,330.19036 C 314.39196,330.19036 391.03882,277.03494 365.01434,215.76775 338.98987,154.50056 306.19044,167.73543 306.19044,167.73543 Z"
     id="path1510" /><path
     style="fill:#000000;stroke:#000000;stroke-width:1px;stroke-linecap:butt;stroke-linejoin:miter;stroke-opacity:1"
     d="M 202.16737,169.84985 164.74223,258.42455 193.96585,332.30478 C 193.96585,332.30478 117.31899,279.14936 143.34347,217.88217 169.36794,156.61498 202.16737,169.84985 202.16737,169.84985 Z"
     id="path1510-2" /><path
     style="fill:#000000;stroke:#000000;stroke-width:1px;stroke-linecap:butt;stroke-linejoin:miter;stroke-opacity:1"
     d="M 199.1748,110.09105 C 199.1748,110.09105 164.37175,84.184581 138.90369,57.603494 113.43564,31.022406 81.98025,0.97288798 81.98025,0.97288798 81.98025,0.97288798 80.869178,69.323968 115.12364,103.91249 149.3781,138.50101 166.48803,140.0226 166.48803,140.0226 Z"
     id="path1688" /><path
     style="fill:#000000;stroke:#000000;stroke-width:1px;stroke-linecap:butt;stroke-linejoin:miter;stroke-opacity:1"
     d="M 164.75734,143.11071 C 164.75734,143.11071 66.75264,86.440949 47.742255,55.237005 28.731871,24.033061 25.899803,7.6190421 25.899803,7.6190421 25.899803,7.6190421 13.750606,54.174552 60.090466,117.29532 106.43033,180.41608 131.68766,193.08015 131.68766,193.08015 Z"
     id="path1690" /><path
     style="fill:#000000;stroke:#000000;stroke-width:1px;stroke-linecap:butt;stroke-linejoin:miter;stroke-opacity:1"
     d="M 124.88109,196.98178 1.7311906,92.645385 C 1.7311906,92.645385 15.025515,162.35147 61.485803,203.28379 107.94609,244.21611 125.89492,263.22655 125.89492,263.22655 Z"
     id="path1692" /><path
     style="fill:#000000;stroke:#000000;stroke-width:1px;stroke-linecap:butt;stroke-linejoin:miter;stroke-opacity:1"
     d="M 128.36318,264.1939 0.04889926,210.99531 C 0.04889926,210.99531 24.066669,276.78593 63.065647,291.11728 102.06463,305.44863 135.53564,316.03988 135.53564,316.03988 Z"
     id="path1694" /><path
     style="fill:#000000;stroke:#000000;stroke-width:1px;stroke-linecap:butt;stroke-linejoin:miter;stroke-opacity:1"
     d="M 135.20662,315.11275 26.526531,322.84746 C 26.526531,322.84746 33.009408,359.32978 77.627151,357.58252 122.2449,355.83525 135.20662,315.11275 135.20662,315.11275 Z"
     id="path1696" /><path
     style="fill:#000000;stroke:#000000;stroke-width:1px;stroke-linecap:butt;stroke-linejoin:miter;stroke-opacity:1"
     d="M 133.56958,315.17123 70.795987,422.82846 C 70.795987,422.82846 92.997426,429.53668 116.79238,395.96468 140.58733,362.39268 133.56958,315.17123 133.56958,315.17123 Z"
     id="path1698" /><path
     id="path1688-7"
     style="fill:#000000;stroke:#000000;stroke-width:1px;stroke-linecap:butt;stroke-linejoin:miter;stroke-opacity:1"
     d="M 430.00983,1.494037 C 430.00983,1.494037 398.55403,31.543843 373.086,58.124897 347.61797,84.70596 312.81452,110.61123 312.81452,110.61123 L 345.50202,140.54287 C 345.50202,140.54287 362.61087,139.02198 396.8653,104.43349 431.11972,69.845005 430.00983,1.494037 430.00983,1.494037 Z M 486.08991,8.1405222 C 486.08991,8.1405222 483.25653,24.55379 464.24616,55.757709 445.2358,86.961618 347.23249,143.63076 347.23249,143.63076 L 380.30084,193.60146 C 380.30084,193.60146 405.55868,180.937 451.8985,117.8163 498.23831,54.695597 486.08991,8.1405222 486.08991,8.1405222 Z M 510.25788,93.165912 387.10749,197.50185 386.09381,263.6913 383.62506,264.71474 376.45319,316.56044 C 376.45319,316.56044 377.00914,316.38093 377.0528,316.36708 377.22097,316.85012 377.46306,317.50473 378.06061,318.89442 376.99194,329.91915 375.03963,368.04403 395.19733,396.48427 418.99226,430.05624 441.19342,423.3495 441.19342,423.3495 L 392.961,340.63075 C 401.92592,349.43168 415.22457,357.35399 434.36139,358.10341 478.97909,359.85067 485.46295,323.36708 485.46295,323.36708 L 378.87311,315.78114 C 384.82117,313.87984 413.9654,304.48511 448.92389,291.63857 487.92283,277.30723 511.93952,211.51552 511.93952,211.51552 L 386.18756,263.65224 C 386.42449,263.40166 404.35181,244.46544 450.50397,203.80458 496.96421,162.8723 510.25788,93.165912 510.25788,93.165912 Z" /><path
     id="path1702"
     style="fill:#000000;stroke:#000000;stroke-width:1px;stroke-linecap:butt;stroke-linejoin:miter;stroke-opacity:1"
     d="M 203.53711 353.69336 C 203.53711 353.69336 169.51259 359.90005 169.25391 366.4082 C 168.99524 372.91636 172.38867 390.03516 172.38867 390.03516 L 186.22852 389.38672 C 186.22852 389.38672 182.51233 373.53848 188.47461 366.29883 C 194.4369 359.05917 203.53711 353.69336 203.53711 353.69336 z M 171.15234 396.29297 L 164.5625 447.11719 L 189.74609 447.11719 L 186.79297 396.49219 L 171.15234 396.29297 z M 112.97656 414.48438 C 112.97656 414.48438 79.100707 425.59445 76.039062 441.70703 C 72.977417 457.81963 76.6875 481.51172 76.6875 481.51172 C 76.6875 481.51172 77.9184 454.16332 86.541016 442.64844 C 95.163631 431.13356 127.10742 426.08984 127.10742 426.08984 L 112.97656 414.48438 z M 129.61719 431.68555 L 108.74805 433.6875 L 143.4082 467.80078 L 155.54688 450.69141 L 129.61719 431.68555 z M 216.94336 448.66406 L 223.40625 471.08789 C 223.40625 471.08789 233.94897 469.55373 235.39062 476.14062 C 236.83228 482.72752 230.60156 502.64844 230.60156 502.64844 C 230.60156 502.64844 236.68869 495.15743 240.53711 480.01367 C 244.38553 464.86991 236.18359 451.5332 236.18359 451.5332 L 216.94336 448.66406 z M 197.49414 448.77734 L 198.31445 470.94336 L 218.47461 472.49219 L 212.86133 448.77734 L 197.49414 448.77734 z M 165.75977 454.99219 L 152.28125 471.04492 L 194.5293 477.80664 L 185.68359 454.99219 L 165.75977 454.99219 z M 161.5918 476.80664 L 160.32031 511.9668 L 193.80664 511.88086 L 189.75391 481.44336 L 161.5918 476.80664 z " /><path
     id="path1702-3"
     style="fill:#000000;stroke:#000000;stroke-width:1px;stroke-linecap:butt;stroke-linejoin:miter;stroke-opacity:1"
     d="M 308.48633,354.05273 C 308.48633,354.05273 317.58653,359.41659 323.54883,366.65625 329.51111,373.8959 325.79688,389.74414 325.79688,389.74414 L 339.63477,390.39258 C 339.63477,390.39258 343.03015,373.27573 342.77148,366.76758 342.5128,360.25942 308.48633,354.05273 308.48633,354.05273 Z M 340.87305,396.65234 325.23047,396.84961 322.2793,447.47461 H 347.46289 Z M 399.04688,414.8418 384.91602,426.44922 C 384.91602,426.44922 416.86175,431.49098 425.48438,443.00586 434.10699,454.52074 435.33594,481.87109 435.33594,481.87109 435.33594,481.87109 439.04798,458.17705 435.98633,442.06445 432.92468,425.95187 399.04688,414.8418 399.04688,414.8418 Z M 382.4082,432.04297 356.47656,451.04883 368.61523,468.1582 403.27539,434.04492 Z M 295.08008,449.02148 275.8418,451.89062 C 275.8418,451.89062 267.63987,465.22733 271.48828,480.37109 275.3367,495.51485 281.42188,503.00586 281.42188,503.00586 281.42188,503.00586 275.19311,483.08494 276.63477,476.49805 278.07642,469.91115 288.61914,471.44531 288.61914,471.44531 Z M 299.16406,449.13477 293.55078,472.84961 313.71094,471.30078 314.53125,449.13477 Z M 326.33984,455.34961 317.49609,478.16406 359.74219,471.40234 346.26367,455.34961 Z M 350.43164,477.16406 322.26953,481.80078 318.21875,512.23828 351.70508,512.32422 Z" /></svg>
