<svg xmlns="http://www.w3.org/2000/svg" viewBox="0 0 512 512"><path fill="currentColor" d="M241.16 0v81.62h29.68V0h-29.68zM140.855 26.88 115.15 41.72l40.81 70.69 25.704-14.85-40.809-70.68zm230.295 0-40.814 70.68 25.703 14.85 40.81-70.69-25.699-14.84zM41.72 115.15l-14.84 25.7 70.684 40.81 14.846-25.7-70.69-40.81zm428.565 0-70.691 40.81 14.842 25.7 70.689-40.81-14.84-25.7zM256 118.72A137.275 137.28 0 0 0 118.725 256 137.275 137.28 0 0 0 256 393.28 137.275 137.28 0 0 0 393.275 256 137.275 137.28 0 0 0 256 118.72zM0 241.16v29.68h81.625v-29.68H0zm430.375 0v29.68H512v-29.68h-81.625zm-332.81 89.17L26.88 371.14l14.84 25.71 70.685-40.81-14.842-25.71zm316.87.01-14.841 25.7 70.691 40.81 14.84-25.7-70.69-40.81zm-58.406 69.238-25.7 14.844 40.817 70.68 25.7-14.84-40.817-70.684zm-200.049.027-40.812 70.688 25.703 14.84 40.813-70.686-25.704-14.842zm85.18 30.776V512h29.68v-81.62h-29.68z"/></svg>
