<svg xmlns="http://www.w3.org/2000/svg" width="512" height="512" viewBox="0 0 512 512"><path d="M181.33-.03a17.7 17.7 0 0 0-4.984.481A16 16 0 0 0 164.116 16v32a16 16 0 0 0 .26.715H64.716a16 16 0 0 0-16 16v99.96c-.534-.078-1.063-.156-1.479-.196a72 72 0 0 0-3.566-.245c-5.075-.25-10.423-.543-15.91-.056l1.414-.063H16a16.002 16.002 0 0 0-5.28 31.104c7.277 2.544 13.019 2.154 18.122 2.015s9.599-.358 11.947-.17a16 16 0 0 0 1.988.036c1.997-.09 3.393-.167 4.85-.323.26-.028.81-.156 1.088-.187v43.47c-.534-.078-1.063-.156-1.479-.197a72 72 0 0 0-3.566-.244c-5.075-.25-10.423-.543-15.91-.056l1.414-.063H16a16.002 16.002 0 0 0-5.28 31.104c7.277 2.543 13.019 2.154 18.122 2.015s9.599-.358 11.947-.17a16 16 0 0 0 1.988.035c1.997-.088 3.393-.166 4.85-.322.26-.028.81-.156 1.088-.187v43.47c-.534-.078-1.063-.156-1.479-.197a72 72 0 0 0-3.566-.244c-5.075-.25-10.423-.544-15.91-.057l1.414-.062H16a16.002 16.002 0 0 0-5.28 31.103c7.277 2.544 13.019 2.154 18.122 2.016 5.103-.139 9.599-.358 11.947-.17a16 16 0 0 0 1.988.035c1.997-.089 3.393-.166 4.85-.322.26-.028.81-.156 1.088-.188v99.926a16 16 0 0 0 16 16h99.648a16 16 0 0 0-.248.715v32a16.002 16.002 0 0 0 31.104 5.28c2.544-7.277 2.154-13.019 2.015-18.122s-.358-9.599-.17-11.947a16 16 0 0 0 .038-1.63c-.1.188-.21.365-.217.433-.026.248.086-.567.18-1.246a16 16 0 0 0-.95-4.377v-.252c.656 1.364 1.054 2.467 1.153 3.267.196-.899.442-1.977.117-4.12h42.363a16 16 0 0 0-.248.714v32a16.002 16.002 0 0 0 31.104 5.28c2.543-7.277 2.154-13.019 2.015-18.122s-.358-9.599-.17-11.947a16 16 0 0 0 .037-1.63c-.099.188-.21.365-.216.433-.026.248.086-.567.18-1.246a16 16 0 0 0-.95-4.377v-.252c.656 1.364 1.054 2.467 1.152 3.267.197-.899.443-1.977.118-4.12h42.363a16 16 0 0 0-.248.714v32a16.002 16.002 0 0 0 31.103 5.28c2.544-7.277 2.154-13.019 2.016-18.122-.139-5.103-.358-9.599-.17-11.947a16 16 0 0 0 .037-1.63c-.099.188-.21.365-.217.433-.025.248.086-.567.18-1.246a16 16 0 0 0-.95-4.377v-.252c.657 1.364 1.055 2.467 1.153 3.267.196-.899.442-1.977.117-4.12h99.131a16 16 0 0 0 16-16V347.228c5.182 1.096 9.577.883 13.557.775 5.103-.139 9.599-.358 11.947-.17a16 16 0 0 0 1.988.035c1.997-.089 3.393-.166 4.85-.322.728-.078 1.28-.077 3.045-.526.883-.224 1.838.032 5.396-2.459 1.78-1.245 5.227-3.79 6.504-9.826s-2.004-12.273-4.27-14.572c-4.53-4.598-5.876-3.84-6.92-4.152-1.042-.313-1.586-.403-2.058-.487-.944-.167-1.501-.22-2.088-.277a72 72 0 0 0-3.566-.244c-5.075-.25-10.423-.544-15.91-.057l1.414-.062H464a16 16 0 0 0-.715.261v-43.302c5.182 1.097 9.577.883 13.557.775 5.103-.138 9.599-.358 11.947-.17a16 16 0 0 0 1.988.035c1.997-.088 3.393-.166 4.85-.322.728-.078 1.28-.077 3.045-.525.883-.225 1.838.03 5.396-2.46 1.78-1.244 5.227-3.789 6.504-9.825 1.277-6.037-2.004-12.274-4.27-14.573-4.53-4.598-5.876-3.839-6.92-4.152-1.042-.313-1.586-.403-2.058-.486-.944-.168-1.501-.22-2.088-.278a72 72 0 0 0-3.566-.244c-5.075-.25-10.423-.543-15.91-.056l1.414-.063H464a16 16 0 0 0-.715.262v-43.303c5.182 1.097 9.577.883 13.557.775 5.103-.138 9.599-.358 11.947-.17a16 16 0 0 0 1.988.036c1.997-.09 3.393-.167 4.85-.323.728-.078 1.28-.077 3.045-.525.883-.224 1.838.031 5.396-2.459 1.78-1.245 5.227-3.79 6.504-9.826s-2.004-12.273-4.27-14.572c-4.53-4.598-5.876-3.84-6.92-4.153-1.042-.313-1.586-.402-2.058-.486-.944-.168-1.501-.22-2.088-.277a72 72 0 0 0-3.566-.245c-5.075-.25-10.423-.543-15.91-.056l1.414-.063H464a16 16 0 0 0-.715.262V64.715a16 16 0 0 0-16-16H347.23c1.096-5.182.883-9.577.775-13.557-.139-5.103-.358-9.599-.17-11.947a16 16 0 0 0 .037-1.63c-.099.188-.21.365-.217.433-.025.248.086-.567.18-1.246a16 16 0 0 0-.95-4.377v-.252c.657 1.364 1.055 2.467 1.153 3.267.297-1.357.803-3.207-.914-8.16-1.007-2.905-3.933-7.402-8.523-9.623S329.687-.172 327.115.451A16 16 0 0 0 314.885 16v32a16 16 0 0 0 .261.715h-43.302c1.097-5.182.883-9.577.775-13.557-.138-5.103-.358-9.599-.17-11.947a16 16 0 0 0 .037-1.63c-.099.188-.21.365-.216.433-.026.248.086-.567.18-1.246a16 16 0 0 0-.95-4.377v-.252c.656 1.364 1.054 2.467 1.152 3.267.297-1.357.803-3.207-.914-8.16-1.007-2.905-3.933-7.402-8.523-9.623S254.302-.172 251.73.451A16 16 0 0 0 239.5 16v32a16 16 0 0 0 .262.715h-43.303c1.097-5.182.883-9.577.775-13.557-.138-5.103-.358-9.599-.17-11.947a16 16 0 0 0 .038-1.63c-.1.188-.21.365-.217.433-.026.248.086-.567.18-1.246a16 16 0 0 0-.95-4.377v-.252c.656 1.364 1.054 2.467 1.153 3.267.296-1.357.803-3.207-.914-8.16-1.008-2.905-3.934-7.402-8.524-9.623a16.6 16.6 0 0 0-6.5-1.652m14.418 15.499c.1.19.235.409.322.588l-.058.074a16 16 0 0 0-.264-.662m75.385 0c.1.19.235.409.322.588l-.059.074a16 16 0 0 0-.263-.662m75.385 0c.1.19.235.409.322.588l-.059.074a16 16 0 0 0-.263-.662m-181.13.812c0 .004-.108.855-.177 1.315-.016-.956.178-1.319.178-1.315m75.385 0c0 .004-.108.855-.177 1.315-.017-.956.178-1.319.177-1.315m75.385 0c0 .004-.108.855-.178 1.315-.016-.956.179-1.319.178-1.315M80.715 80.715h350.57v350.57H80.715Zm115.033 382.754c.1.19.235.409.322.588l-.058.074a16 16 0 0 0-.264-.662m75.385 0c.1.19.235.409.322.588l-.059.074a16 16 0 0 0-.263-.662m75.385 0c.1.19.235.409.322.588l-.059.074a16 16 0 0 0-.263-.662m-181.13.812c0 .004-.108.855-.177 1.315-.016-.956.178-1.319.178-1.315m75.385 0c0 .004-.108.855-.177 1.315-.017-.956.178-1.319.177-1.315m75.385 0c0 .004-.108.855-.178 1.315-.016-.956.179-1.319.178-1.315" fill="currentColor"/></svg>
