<?xml version="1.0" encoding="UTF-8" standalone="no"?>
<svg
   version="1.0"
   width="512"
   height="512"
   viewBox="0 0 512 512"
   id="svg1"
   sodipodi:docname="plug-0.svg"
   inkscape:version="1.2.2 (b0a8486541, 2022-12-01)"
   xmlns:inkscape="http://www.inkscape.org/namespaces/inkscape"
   xmlns:sodipodi="http://sodipodi.sourceforge.net/DTD/sodipodi-0.dtd"
   xmlns="http://www.w3.org/2000/svg"
   xmlns:svg="http://www.w3.org/2000/svg"
   xmlns:rdf="http://www.w3.org/1999/02/22-rdf-syntax-ns#"
   xmlns:cc="http://creativecommons.org/ns#"
   xmlns:dc="http://purl.org/dc/elements/1.1/">
  <metadata
     id="metadata876">
    <rdf:RDF>
      <cc:Work
         rdf:about="">
        <dc:format>image/svg+xml</dc:format>
        <dc:type
           rdf:resource="http://purl.org/dc/dcmitype/StillImage" />
      </cc:Work>
    </rdf:RDF>
  </metadata>
  <defs
     id="defs878" />
  <sodipodi:namedview
     pagecolor="#ffffff"
     bordercolor="#666666"
     borderopacity="1"
     objecttolerance="10"
     gridtolerance="10"
     guidetolerance="10"
     inkscape:pageopacity="0"
     inkscape:pageshadow="2"
     inkscape:window-width="1920"
     inkscape:window-height="1022"
     showgrid="false"
     inkscape:pagecheckerboard="true"
     inkscape:zoom="1"
     inkscape:cx="283.5"
     inkscape:cy="363.5"
     inkscape:window-x="0"
     inkscape:window-y="36"
     inkscape:window-maximized="1"
     inkscape:current-layer="svg1"
     showguides="true"
     id="namedview884"
     inkscape:showpageshadow="2"
     inkscape:deskcolor="#d1d1d1">
    <sodipodi:guide
       position="256,256"
       orientation="0,1"
       inkscape:locked="false"
       inkscape:label=""
       inkscape:color="rgb(0,0,255)"
       id="guide880" />
    <sodipodi:guide
       position="256,256"
       orientation="-1,0"
       inkscape:locked="false"
       inkscape:label=""
       inkscape:color="rgb(0,0,255)"
       id="guide882" />
  </sodipodi:namedview>
  <path
     id="path4043"
     style="stroke-width:44.249;stroke-miterlimit:8"
     d="M 306.39258,0.00976563 C 288.66119,0.46421648 274.81536,17.587505 276.12109,34.755859 V 128.38672 H 235.95898 C 235.96408,96.065937 235.98104,63.733072 235.92578,31.472656 235.5805,14.80337 220.64209,0.45538072 203.95703,0.8125 185.40705,0.15367132 170.60916,17.826654 171.95703,35.548828 V 128.38672 H 128 V 345.61133 345.93945 H 128.02539 A 128,108.77613 0 0 0 192,439.8125 128,108.77613 0 0 0 224,450.50781 V 512 H 288 V 450.50781 A 128,108.77613 0 0 0 320,439.8125 128,108.77613 0 0 0 383.97461,345.93945 H 384 V 345.61133 128.38672 H 340.12305 C 340.1279,95.80123 340.14555,63.202654 340.08984,30.677734 339.74456,14.008449 324.80616,-0.33954117 308.12109,0.01757813 307.54141,-0.00301027 306.96456,-0.00489408 306.39258,0.00976563 Z" />
</svg>
