<svg width="1024" height="1024" fill="none" xmlns="http://www.w3.org/2000/svg"><path fill-rule="evenodd" clip-rule="evenodd" d="M773.828 438.341v-49.273L650.744 192h-42.517l-67.134 161.238-66.016-138.792-36.939-.064-111.866 264.271v-250.82h-76.1v22.174H192v77.253h58.172v223.046c0 19.792 16.055 35.835 35.832 35.835h38.029V832l77.65-.054.012-111.302c0-61.68 53.331-111.681 119.268-112.081.235 0 .482-.028.744-.028H521.875c107.847.077 195.264 81.745 195.264 182.448V832h56.689V611.427H832v-121.94l-58.172-51.146Z" fill="currentColor"/></svg>