<svg xmlns="http://www.w3.org/2000/svg" xml:space="preserve" width="512" height="512" viewBox="0 0 512 512"><path d="M81.98.973s-1.111 68.35 33.143 102.94c34.254 34.588 51.365 36.11 51.365 36.11l32.686-29.931s-34.802-25.907-60.27-52.488C113.436 31.022 81.98.973 81.98.973m348.03.521s-31.456 30.05-56.924 56.631-60.272 52.486-60.272 52.486l32.688 29.932s17.109-1.52 51.363-36.11C431.12 69.846 430.01 1.495 430.01 1.495M25.9 7.62S13.75 54.174 60.09 117.295c46.34 63.12 71.598 75.785 71.598 75.785l33.07-49.969S66.753 86.441 47.742 55.236C28.732 24.032 25.9 7.62 25.9 7.62m460.19.522s-2.834 16.413-21.844 47.617-117.014 87.873-117.014 87.873l33.069 49.97s25.258-12.664 71.597-75.785C498.238 54.696 486.09 8.141 486.09 8.141M255.652 76.248c-.104 4.57-2.953 8.628-4.218 12.982l-64.032 166.616h-.058l.03.076-.03.078h.058l64.032 166.615c1.265 4.354 4.114 8.413 4.218 12.983.497-1.707.869.683.694-1.805l68.31-177.748h-51.57c-5.004-.121-10.417.165-15.254-.123 4.837-.288 10.25 0 15.254-.121h51.57l-68.31-177.748c.175-2.488-.197-.098-.694-1.805M1.73 92.645s13.296 69.706 59.756 110.638c46.152 40.66 64.078 59.597 64.315 59.848L.049 210.996s24.018 65.79 63.017 80.121c34.967 12.85 64.118 22.247 70.055 24.145l-106.594 7.586s6.482 36.481 51.1 34.734c19.138-.75 32.437-8.673 41.402-17.475l-48.232 82.721s22.201 6.709 45.996-26.863c20.156-28.439 18.205-66.563 17.137-77.59.598-1.39.84-2.047 1.007-2.53l.598.194-7.172-51.846-2.468-1.023-1.014-66.188zm508.528.521-123.15 104.336-1.014 66.19-2.469 1.023-7.172 51.846.6-.194c.168.483.41 1.138 1.008 2.528-1.07 11.024-3.021 49.15 17.136 77.59 23.795 33.571 45.996 26.865 45.996 26.865l-48.232-82.72c8.965 8.802 22.264 16.724 41.4 17.474 44.618 1.747 51.102-34.737 51.102-34.737l-106.59-7.586c5.948-1.901 35.092-11.296 70.05-24.142 39-14.332 63.016-80.123 63.016-80.123l-125.752 52.136c.237-.25 18.165-19.186 64.317-59.847 46.46-40.933 59.754-110.639 59.754-110.639m-195.666 73.37c-5.199-.093-8.4 1.2-8.4 1.2l37.423 88.575-29.222 73.878s76.645-53.154 50.62-114.421c-17.891-42.122-38.985-49.03-50.421-49.233m-120.826 2.114c-11.437.204-32.53 7.112-50.422 49.233-26.025 61.267 50.623 114.422 50.623 114.422l-29.225-73.881 37.426-88.574s-3.204-1.292-8.402-1.2m9.771 185.043s-34.024 6.207-34.283 12.715 3.135 23.627 3.135 23.627l13.84-.648s-3.717-15.849 2.246-23.088c5.962-7.24 15.062-12.606 15.062-12.606m104.95.36s9.1 5.364 15.062 12.603c5.962 7.24 2.248 23.088 2.248 23.088l13.838.649s3.395-17.117 3.136-23.625c-.258-6.509-34.285-12.715-34.285-12.715m-137.335 42.24-6.59 50.824h25.184l-2.953-50.625zm169.721.36-15.643.197-2.95 50.625h25.183zm-227.896 17.831s-33.876 11.11-36.938 27.223.648 39.805.648 39.805 1.231-27.349 9.854-38.864 40.566-16.558 40.566-16.558zm286.07.358-14.131 11.607s31.946 5.042 40.568 16.557c8.623 11.515 9.852 38.865 9.852 38.865s3.712-23.694.65-39.807c-3.061-16.112-36.94-27.222-36.94-27.222m-269.43 16.844-20.869 2.002 34.66 34.113 12.139-17.11zm252.791.357-25.931 19.006 12.138 17.11 34.66-34.114zm-165.465 16.621 6.463 22.424s10.543-1.534 11.985 5.053c1.441 6.587-4.79 26.507-4.79 26.507s6.088-7.49 9.936-22.634c3.849-15.144-4.353-28.48-4.353-28.48zm-19.449.113.82 22.166 20.16 1.55-5.613-23.716zm97.586.244-19.238 2.87s-8.202 13.336-4.354 28.48c3.849 15.144 9.934 22.635 9.934 22.635s-6.229-19.921-4.787-26.508c1.441-6.587 11.984-5.053 11.984-5.053zm4.084.114-5.613 23.715 20.16-1.55.82-22.165zm-133.404 5.857-13.479 16.053 42.248 6.762-8.845-22.815zm160.58.358-8.844 22.814 42.246-6.762-13.478-16.052zm-164.748 21.457-1.272 35.16 33.487-.086-4.053-30.438zm188.84.357-28.162 4.637-4.051 30.437 33.486.086z" style="stroke-width:23.3661;stroke-miterlimit:8"/></svg>