<svg xmlns="http://www.w3.org/2000/svg" width="512" height="512" viewBox="0 0 512 512"><path d="M311.168 50.46q-2.447.06-4.959.306c-40.017 3.92-83.41 49.416-136.365 142.984-22.998 40.637-54.856 106.319-74.531 153.668L80.92 382.053l-13.225-1.856c-7.275-1.024-15.542-3.096-18.37-4.611-28.716-15.366-14.531-78.227 36.259-160.688 9.557-15.52 17.379-30.565 17.379-33.431 0-7.141-13.082-15.215-21.285-13.139-7.082 1.793-22.38 23.503-42.776 60.701-53.8 98.126-49.788 163.503 11.131 181.457l17.051 5.028-5.572 14.14c-6.923 17.567-6.915 18.465.304 25.684 12.675 12.674 23.377 6.042 33.188-20.574l7.045-19.106 25.472-5.03c59.363-11.72 146.036-43.233 229.006-83.269 12.567-6.06 23.753-10.109 24.864-8.998 2.45 2.454 6.144 59.86 6.449 100.319.164 21.63 1.441 31.209 4.799 36.004 5.156 7.362 15.156 8.475 23.21 2.586 4.83-3.533 5.339-8.13 4.82-43.86-.317-21.951-1.694-56.877-3.056-77.615-1.362-20.735-2.287-37.796-2.052-37.912 57.022-27.979 88.645-45.304 92.14-50.47 5.92-8.757 2.925-19.452-6.67-23.823-6.984-3.182-11.223-1.628-46.728 17.133-21.477 11.345-39.793 20.629-40.707 20.629-.912 0-2.5-6.284-3.526-13.961-18.504-138.382-48.34-198.104-98.902-196.93m-.666 32.56c22.034.399 43.932 39.486 55.625 100.476 5.064 26.423 13.121 81.859 13.121 90.297 0 4.19-8.406 9.493-34.537 21.773-77.997 36.665-129.127 56.987-180.025 71.555-15.358 4.396-32.17 8.804-37.364 9.799-10.975 2.1-11.527 4.898 7.498-38.174C198.21 195.232 267.516 91.934 306.096 83.461a19 19 0 0 1 4.406-.441" fill="currentColor"/></svg>
