<?xml version="1.0" encoding="UTF-8" standalone="no"?>
<svg
   version="1.0"
   width="512"
   height="512"
   viewBox="0 0 512 512"
   id="svg10"
   sodipodi:docname="mona-0.svg"
   inkscape:version="1.2.2 (b0a8486541, 2022-12-01)"
   xmlns:inkscape="http://www.inkscape.org/namespaces/inkscape"
   xmlns:sodipodi="http://sodipodi.sourceforge.net/DTD/sodipodi-0.dtd"
   xmlns="http://www.w3.org/2000/svg"
   xmlns:svg="http://www.w3.org/2000/svg">
  <defs
     id="defs483" />
  <sodipodi:namedview
     id="namedview481"
     pagecolor="#ffffff"
     bordercolor="#666666"
     borderopacity="1.0"
     inkscape:showpageshadow="2"
     inkscape:pageopacity="0.0"
     inkscape:pagecheckerboard="true"
     inkscape:deskcolor="#d1d1d1"
     showgrid="false"
     inkscape:zoom="0.921875"
     inkscape:cx="38.508475"
     inkscape:cy="128.54237"
     inkscape:window-width="1920"
     inkscape:window-height="1022"
     inkscape:window-x="0"
     inkscape:window-y="36"
     inkscape:window-maximized="1"
     inkscape:current-layer="svg10" />
  <style
     type="text/css"
     id="style2">@media (prefers-color-scheme:light){g{fill:#000}}@media (prefers-color-scheme:dark){g{fill:#fff}}</style>
  <g
     id="g8"
     fill="#000000"
     style="stroke:none;fill:#000000"
     transform="matrix(0.30612355,0,0,0.30612355,77.248681,74.866218)" />
  <path
     id="path662"
     style="color:#000000;fill:#000000;stroke-miterlimit:8;-inkscape-stroke:none"
     d="M 256,4.0371094 C 117.03423,4.0371088 4.0371123,117.03424 4.0371094,256 4.0371094,394.96576 117.03423,507.96289 256,507.96289 394.96577,507.96289 507.96289,394.96576 507.96289,256 507.96289,117.03424 394.96577,4.0371094 256,4.0371094 Z M 256,36.037109 C 377.6717,36.037109 475.96289,134.32831 475.96289,256 475.96289,377.6717 377.6717,475.96289 256,475.96289 134.3283,475.96289 36.037109,377.6717 36.037109,256 36.037112,134.32831 134.3283,36.037109 256,36.037109 Z M 157.15519,248.65409 C 145.58372,263.16434 143.53269,265.82762 143.53269,266.19497 143.53269,266.37864 146.59393,266.50109 152.04293,266.50109 H 160.52255 L 175.21648,251.80716 189.91041,237.11323 H 166.3389 Z M 336.84972,251.80716 351.54365,266.50109 H 360.17633 C 364.95186,266.50109 368.83963,266.43987 368.83963,266.34803 368.83963,266.25619 363.60492,259.64392 357.20693,251.6541 L 345.57424,237.11323 H 322.15579 Z M 209.65538,261.38883 C 205.12475,263.86843 203.53291,264.90925 203.53291,265.2766 203.53291,266.37864 255.57391,357.11366 256.18616,357.11366 256.278,357.11366 261.78822,347.65444 268.4311,336.05236 297.35978,285.54198 308.87002,265.18476 308.62513,264.97047 308.13533,264.48068 298.92101,259.46025 298.52305,259.46025 298.12509,259.46025 296.44141,262.24597 290.50261,272.65417 L 286.73729,279.26644 269.99233,279.45012 C 260.80863,279.57257 247.00245,279.6644 239.34937,279.6644 H 225.42074 L 220.76767,271.46029 C 215.83908,262.797 213.78805,259.46025 213.4207,259.46025 213.26764,259.46025 211.58396,260.3174 209.65538,261.38883 Z M 276.63521,292.15424 279.17604,292.36853 275.53317,298.79713 C 268.21682,311.80738 256.89025,331.09316 256.06371,331.91969 255.66575,332.34827 255.84943,332.685 241.76774,308.10328 237.08405,299.92978 233.16567,293.01139 233.04322,292.73588 232.92077,292.36853 233.10445,292.21547 233.90037,292.12363 235.58405,291.90935 273.91071,291.97057 276.63521,292.15424 Z M 147.20618,74.928973 C 147.20618,75.02081 146.10413,80.531034 144.72658,87.173915 138.87962,115.79647 134.8694,135.57205 129.60407,161.89867 L 123.9714,190.00082 118.30811,195.87839 C 109.55298,205.00087 105.26725,210.20497 100.00193,217.98051 77.991643,250.52144 71.746722,287.56239 82.154923,323.80742 87.328411,341.86871 95.991708,357.97081 109.06318,373.7974 112.92034,378.48109 123.26732,388.79745 128.22652,392.93012 164.3491,422.99145 213.11458,438.87926 263.59435,436.9813 270.97193,436.7364 276.20664,436.33844 282.20666,435.60374 339.69667,428.74657 390.36011,398.37912 416.35,355.18508 443.8399,309.45022 440.31948,253.98064 407.19691,211.18457 403.18669,206.01108 400.15607,202.55188 393.75808,195.87839 L 388.0948,190.00082 383.3805,166.49053 C 373.9825,119.62301 364.95186,75.449383 364.67635,75.204485 364.49267,74.990198 364.309,75.204485 360.51307,80.531034 351.94161,92.56169 333.48236,119.46995 321.4517,137.50063 317.07414,144.08228 313.24759,149.56189 313.00269,149.65373 312.72718,149.77618 309.51288,149.16393 305.8394,148.30679 294.45161,145.67413 282.35972,143.77616 273.17602,143.16391 267.23722,142.73534 244.76775,142.73534 239.04324,143.1333 228.81872,143.868 217.55337,145.70474 204.17577,148.79659 201.57372,149.40883 199.27779,149.83741 199.06351,149.74557 198.87983,149.68434 194.86961,143.83738 190.15531,136.79654 177.84914,118.33729 162.11439,95.439251 152.99191,82.673899 147.63475,75.173872 147.23679,74.62285 147.20618,74.928973 Z M 155.80825,108.14338 C 163.30828,118.70464 183.51243,148.91904 189.75735,158.89866 191.6247,161.92929 193.21655,164.4395 193.24716,164.47011 193.27777,164.53134 195.97166,163.79664 199.21657,162.87827 225.2983,155.50069 250.43104,153.20477 276.54338,155.83743 289.18628,157.12315 300.78836,159.38846 313.85984,163.15378 316.55373,163.91909 318.81904,164.4395 318.91088,164.31705 319.03333,164.16399 320.68639,161.50071 322.61497,158.40887 328.40071,149.10271 352.52324,113.10258 357.02326,107.01072 L 358.24775,105.32704 358.64571,106.7046 C 358.86,107.46991 363.05389,128.0108 367.92126,152.31701 L 376.82945,196.55186 383.77846,203.5927 C 393.48257,213.38865 396.63565,217.09275 401.77852,224.71523 413.01326,241.39896 420.02349,259.91943 421.799,277.6746 422.35002,283.1236 422.2888,298.36855 421.67655,303.23592 417.63572,336.20542 398.77851,366.69533 368.41105,389.31786 345.88036,406.15465 317.31903,417.81796 287.41076,422.44043 277.49236,423.97105 271.06377,424.49146 259.82903,424.67513 245.22694,424.92003 235.03302,424.18533 222.084,422.01185 193.339,417.14449 165.72665,405.75669 144.60413,390.05256 136.8592,384.26682 126.97141,375.35863 121.21629,368.96064 109.39992,355.82794 100.15499,339.94013 94.889663,323.62375 88.644742,304.33796 88.001883,282.02155 93.175371,262.15414 95.440685,253.33778 98.012123,246.60306 102.23663,238.33772 108.78767,225.48054 115.58361,216.41928 128.22652,203.5927 L 135.45103,196.24574 136.00206,193.1845 C 138.17553,181.00078 153.51232,105.4801 153.81845,105.4801 153.87967,105.4801 154.76743,106.67399 155.80825,108.14338 Z" />
</svg>
