<svg xmlns="http://www.w3.org/2000/svg" width="512" height="512" viewBox="0 0 512 512"><path d="M255.25 2c-64.965.533-127.44 7.57-163.873 24.283 0 0-72.23 32.31-72.23 142.496 0 25.223-.483 55.4.304 87.405C22.068 363.958 39.218 470.18 138.89 496.547c45.96 12.167 85.417 14.708 117.175 12.955 57.623-3.2 89.965-20.549 89.965-20.549l-1.906-41.808s-41.184 12.979-87.424 11.404c-45.833-1.575-94.183-4.928-101.601-61.19a114.915 114.886 0 0 1-1.016-15.775s44.97 10.999 101.982 13.615c34.858 1.6 67.53-2.031 100.737-5.994 63.669-7.595 119.107-46.812 126.068-82.652 11.027-56.465 10.113-137.774 10.113-137.774 0-110.212-72.232-142.496-72.232-142.496C384.342 9.57 321.816 2.533 256.852 2Zm-73.5 86.107c27.058 0 47.56 10.389 61.102 31.192l13.162 22.074 13.185-22.074c13.542-20.803 34.046-31.192 61.104-31.192 23.374 0 42.225 8.23 56.605 24.258 13.948 16.028 20.885 37.695 20.885 64.975v133.428h-52.871V181.252c0-27.306-11.484-41.15-34.477-41.15-25.406 0-38.136 16.434-38.136 48.947v70.892h-52.567V189.05c0-32.513-12.728-48.947-38.16-48.947-22.993 0-34.477 13.87-34.477 41.15v129.516h-52.87V177.34c0-27.28 6.934-48.947 20.908-64.975 14.38-16.027 33.207-24.258 56.607-24.258" fill="currentColor"/></svg>
