<svg xmlns="http://www.w3.org/2000/svg" width="512" height="512" viewBox="0 0 512 512"><path d="M305.938 253c9.344-3.625 19.813-14.188 22.938-17.922s5.438-7.75 6.922-12.047 2.234-8.781 2.234-13.484c0-8.203-1.5-15.594-4.469-22.141-2.984-6.547-7.828-11.906-14.063-16.734-11.156-8.656-27.344-12.781-40.469-13.891v-28.125h-24.297v27.75l-22.016-.063v-27.688h-24.281v27.609h-44.219v22.078c0 4.781-.359 7.656 4.609 8.656.422.078 1.063.188 1.875.313.813.141 10.531.453 12.688.75 3.328.469 5.766 2.234 5.766 6.75v119.797c0 3.719-1.844 7.406-5.766 7.406-2.172 0-11.875.594-12.688.734q-1.22.21-1.875.328c-4.969.984-4.609 3.875-4.609 8.641v24.656h44.219v26.953h24.281v-26.953h22.016v26.953h24.297V356.17c9-.5 18.641-1.891 26.313-4.219 9.734-2.953 15.406-7.047 22.047-12.25 6.656-5.219 11.703-11.422 15.188-18.625 3.484-7.188 5.203-15.031 5.203-23.516-.001-23.529-13.313-39.607-41.844-44.56m-71.875-61.281h19.688c10.406 0 18.031 1.719 22.922 5.125 4.875 3.391 7.328 9.109 7.328 17.125 0 7.75-2.719 13.391-8.156 16.938-5.406 3.547-13.344 5.344-23.797 5.344h-17.984Zm55.062 114.344c-1.031 2.844-2.719 5.328-5.031 7.469q-3.492 3.188-9.281 5.109c-5.789 1.921-8.656 1.922-14.375 1.922h-25.516v-45.156h25.406c5.422 0 10.031.484 13.859 1.484 3.813 1 6.938 2.422 9.375 4.313 2.469 1.875 4.25 4.156 5.406 6.813 1.141 2.672 1.703 5.672 1.703 9 .001 3.186-.515 6.217-1.546 9.046M256 0C114.625 0 0 114.625 0 256c0 141.391 114.625 256 256 256s256-114.609 256-256C512 114.625 397.375 0 256 0m0 448c-105.859 0-192-86.141-192-192 0-105.875 86.141-192 192-192 105.875 0 192 86.125 192 192 0 105.859-86.125 192-192 192" fill="currentColor"/></svg>
