<?xml version="1.0" encoding="UTF-8" standalone="no"?>
<svg
   version="1.0"
   width="512"
   height="512"
   viewBox="0 0 512 512"
   id="svg8"
   sodipodi:docname="monar-no-face.svg"
   xmlns:inkscape="http://www.inkscape.org/namespaces/inkscape"
   xmlns:sodipodi="http://sodipodi.sourceforge.net/DTD/sodipodi-0.dtd"
   xmlns="http://www.w3.org/2000/svg"
   xmlns:svg="http://www.w3.org/2000/svg">
  <defs
     id="defs901" />
  <sodipodi:namedview
     id="namedview899"
     pagecolor="#ffffff"
     bordercolor="#666666"
     borderopacity="1.0"
     inkscape:showpageshadow="2"
     inkscape:pageopacity="0.0"
     inkscape:pagecheckerboard="true"
     inkscape:deskcolor="#d1d1d1"
     showgrid="false" />
  <style
     type="text/css"
     id="style2">@media (prefers-color-scheme:light){#outline{fill:#000}#ear,ellipse{fill:#fff}}@media (prefers-color-scheme:dark){#outline{fill:#fff}#ear,ellipse{fill:#000}}</style>
  <ellipse
     cx="-362.61804"
     cy="-56.71405"
     rx="244.35577"
     ry="197.15977"
     id="ellipse4"
     fill="#ffffff"
     style="stroke:none;stroke-width:0.429379" />
  <path
     id="ear"
     d="M -546.05464,341.59117 -515.60492,188.58189 -449.37786,288.30683 H -288.75881 L -222.53175,192.39342 -189.7999,336.26353 Z"
     fill="#ffffff"
     style="stroke:none;stroke-width:0.429379" />
  <path
     id="outline"
     d="M 103.40081,2.0232336 C 103.40081,2.1535652 101.85811,9.8803662 99.924413,19.197744 A 23686.233,23686.233 0 0 0 78.712283,124.01094 L 70.812593,163.42959 62.867686,171.6724 C 50.587259,184.46617 44.576047,191.7674 37.192364,202.6727 6.3197372,248.31535 -2.4390772,300.26978 12.15806,351.10973 19.414072,376.44194 31.566827,399.02654 49.901023,421.22546 55.311114,427.79524 69.823137,442.26471 76.781247,448.06313 127.44566,490.22673 195.8458,512.51077 266.65043,509.85094 276.99716,509.50516 284.34095,508.9466 292.75664,507.91725 373.39466,498.29931 444.45729,455.70482 480.91289,395.11925 519.46976,330.97217 514.53312,253.16688 468.0739,193.13987 462.44837,185.88386 458.19796,181.03234 449.2237,171.6724 L 441.27879,163.42693 434.66646,130.45038 C 421.48435,64.712725 408.81825,2.7520266 408.43257,2.4115685 408.17457,2.111008 407.91657,2.4115685 402.59159,9.8803662 390.56917,26.756976 364.6784,64.497279 347.80445,89.789586 341.66291,99.01919 336.29537,106.7061 335.95225,106.83643 335.56658,107.00666 331.05817,106.14753 325.90608,104.94795 309.93382,101.25345 292.97209,98.590957 280.09054,97.731833 271.75996,97.130712 240.24632,97.130712 232.21363,97.689276 217.8745,98.721289 202.07246,101.296 183.31003,105.63418 179.65809,106.49065 176.4397,107.09177 176.13914,106.9641 175.88113,106.87898 170.2556,98.676072 163.64326,88.80013 146.38098,62.909362 124.31238,30.791936 111.51595,12.888632 104.00193,2.3663515 103.44337,1.5950013 103.40347,2.0232336 Z M 115.93924,49.083575 C 126.41631,63.811043 154.54133,105.93475 163.25759,119.8882 166.00519,124.3115 168.15167,127.3171 168.53735,127.3171 168.92568,127.3171 172.23185,126.45798 175.92369,125.42863 203.74549,117.48372 228.22123,114.00466 256.13081,114.00466 284.0856,114.00466 309.33269,117.65661 337.06938,125.64141 340.28777,126.54575 343.20827,127.3171 343.55404,127.3171 343.93972,127.3171 346.21387,124.09871 348.8338,119.8882 360.08488,101.85457 398.3864,44.918283 399.33064,44.875726 399.50087,44.875726 399.84399,45.604519 400.10199,46.463644 400.31478,47.367985 406.15576,76.09413 413.06865,110.35538 L 425.56453,172.61664 436.16926,183.35171 C 449.90994,197.30516 454.84924,203.23126 462.49092,214.95047 475.54536,235.00557 483.83073,255.87192 487.69546,278.67197 489.24082,287.60367 489.84194,305.93787 488.98281,317.14373 486.62089,347.245 474.12767,378.16019 453.64699,404.35151 445.82976,414.40035 433.50678,427.06645 423.71861,435.22414 369.05914,480.73912 292.97209,500.78891 215.6828,490.0964 200.31165,487.99513 180.60499,483.31384 166.0903,478.29208 127.57599,465.10997 97.775272,446.43 70.724818,418.56298 58.532166,405.98199 49.084456,392.75732 40.668759,376.57227 31.266267,358.49342 26.071622,341.53435 23.451691,320.53767 22.680341,314.43868 22.720238,292.23975 23.451691,285.9732 27.574425,252.39553 41.011877,222.64003 64.543378,195.15868 66.905305,192.45364 72.828743,186.22698 77.725486,181.37545 L 86.65453,172.53152 89.231903,159.0462 C 94.383991,132.34152 109.41202,58.273281 111.64628,48.610125 112.11707,46.551418 112.67563,44.960841 112.89108,45.091172 113.10387,45.261401 114.479,47.022208 115.93924,49.083575 Z"
     fill="#000000"
     style="stroke:none;stroke-width:48;stroke-dasharray:none;fill:#020000;fill-opacity:1" />
</svg>
