<svg xmlns="http://www.w3.org/2000/svg" width="512" height="512" viewBox="0 0 512 512"><path d="M256 4.037C117.034 4.037 4.037 117.034 4.037 256S117.034 507.963 256 507.963 507.963 394.966 507.963 256 394.966 4.037 256 4.037m0 32c121.672 0 219.963 98.291 219.963 219.963S377.672 475.963 256 475.963 36.037 377.672 36.037 256 134.328 36.037 256 36.037m-98.845 212.617c-11.571 14.51-13.622 17.174-13.622 17.541 0 .184 3.06.306 8.51.306h8.48l14.693-14.694 14.694-14.694H166.34Zm179.695 3.153 14.694 14.694h8.632c4.776 0 8.664-.061 8.664-.153s-5.235-6.704-11.633-14.694l-11.633-14.54h-23.418Zm-127.195 9.582c-4.53 2.48-6.122 3.52-6.122 3.888 0 1.102 52.04 91.837 52.653 91.837.092 0 5.602-9.46 12.245-21.062 28.929-50.51 40.439-70.867 40.194-71.082-.49-.49-9.704-5.51-10.102-5.51s-2.082 2.786-8.02 13.194l-3.766 6.612-16.745.184c-9.183.123-22.99.214-30.643.214h-13.928l-4.653-8.204c-4.929-8.663-6.98-12-7.347-12-.153 0-1.837.857-3.766 1.929m66.98 30.765 2.541.215-3.643 6.428c-7.316 13.01-18.643 32.296-19.47 33.123-.397.428-.214.765-14.295-23.817-4.684-8.173-8.602-15.092-8.725-15.367-.122-.367.061-.52.857-.612 1.684-.215 40.01-.153 42.735.03M147.206 74.93c0 .092-1.102 5.602-2.48 12.245-5.846 28.622-9.857 48.398-15.122 74.725L123.971 190l-5.663 5.877c-8.755 9.123-13.04 14.327-18.306 22.103-22.01 32.54-28.255 69.581-17.847 105.826 5.173 18.062 13.837 34.164 26.908 49.99 3.857 4.684 14.204 15 19.164 19.133 36.122 30.061 84.888 45.95 135.367 44.051 7.378-.245 12.613-.643 18.613-1.377 57.49-6.857 108.153-37.225 134.143-80.419 27.49-45.735 23.97-101.204-9.153-144-4.01-5.174-7.04-8.633-13.439-15.307l-5.663-5.877-4.715-23.51c-9.397-46.868-18.428-91.042-18.704-91.287-.183-.214-.367 0-4.163 5.327-8.571 12.03-27.03 38.939-39.061 56.97-4.378 6.581-8.204 12.06-8.45 12.153-.275.122-3.49-.49-7.163-1.347-11.387-2.633-23.48-4.53-32.663-5.143-5.939-.429-28.408-.429-34.133-.03-10.224.734-21.49 2.57-34.867 5.663-2.602.612-4.898 1.04-5.112.949-.184-.062-4.194-5.909-8.909-12.95-12.306-18.459-28.04-41.357-37.163-54.122-5.357-7.5-5.755-8.051-5.786-7.745m8.602 33.214c7.5 10.562 27.704 40.776 33.95 50.756 1.867 3.03 3.459 5.54 3.49 5.571.03.061 2.724-.673 5.969-1.592 26.081-7.377 51.214-9.673 77.326-7.04 12.643 1.285 24.245 3.55 37.317 7.316 2.694.765 4.959 1.286 5.05 1.163.123-.153 1.776-2.816 3.705-5.908 5.786-9.306 29.908-45.306 34.408-51.398l1.225-1.684.398 1.378c.214.765 4.408 21.306 9.275 45.612l8.908 44.235 6.95 7.04c9.704 9.797 12.857 13.5 18 21.123 11.234 16.684 18.244 35.204 20.02 52.96.551 5.449.49 20.694-.122 25.56-4.041 32.97-22.898 63.46-53.266 86.083-22.53 16.837-51.092 28.5-81 33.122-9.919 1.531-16.347 2.051-27.582 2.235-14.602.245-24.796-.49-37.745-2.663-28.745-4.868-56.357-16.255-77.48-31.96-7.745-5.785-17.633-14.693-23.388-21.091-11.816-13.133-21.061-29.02-26.326-45.337-6.245-19.286-6.888-41.602-1.715-61.47 2.266-8.816 4.837-15.55 9.062-23.816 6.55-12.857 13.347-21.919 25.99-34.745l7.224-7.347.551-3.061c2.174-12.184 17.51-87.705 17.816-87.705.062 0 .95 1.194 1.99 2.663" fill="currentColor"/></svg>
