<svg xmlns="http://www.w3.org/2000/svg" width="512" height="512" viewBox="0 0 512 512"><path d="M91 0a16 16 0 0 0-16 16v480a16 16 0 0 0 16 16h330a16 16 0 0 0 16-16V164a16 16 0 0 0-.092-.346 16 16 0 0 0-1.976-7.367 16 16 0 0 0-.21-.42 16 16 0 0 0-2.406-3.183l-148-148a16 16 0 0 0-3.007-2.23 16 16 0 0 0-.477-.354 16 16 0 0 0-4.709-1.793 16 16 0 0 0-2.135-.041A16 16 0 0 0 273 0Zm16 32h150v132l.006.021a16 16 0 0 0 1.918 7.153 16 16 0 0 0 .627 1.232 16 16 0 0 0 5.043 5.043 16 16 0 0 0 1.232.627 16 16 0 0 0 7.153 1.918L273 180h132v300H107Zm182.002 22.623 93.375 93.375h-93.375Z" fill="currentColor"/></svg>
