<svg xmlns="http://www.w3.org/2000/svg" width="512" height="512" viewBox="0 0 512 512"><style>path{fill:#000}@media (prefers-color-scheme:dark){path{fill:#fff}}</style><path d="m500.115 348.266-20.594-25.734V181.516c-.016-51.891-42.172-94.031-94.063-94.047H329.77c7.031-8.609 11.281-19.609 11.281-31.594 0-27.594-22.375-49.969-49.969-49.969-13.688 0-26.094 5.531-35.109 14.453-9.016-8.906-21.375-14.453-35.047-14.453-27.594 0-49.953 22.375-49.984 49.969 0 11.984 4.25 22.984 11.297 31.594h-55.703c-51.891.016-94.031 42.156-94.063 94.047v141l-20.594 25.75C.943 361.922-2.697 380 2.021 396.844l19.609 69.688c6.563 23.391 27.922 39.563 52.219 39.563h364.297c24.297 0 45.641-16.172 52.234-39.563l19.594-69.688a54.25 54.25 0 0 0-9.859-48.578M260.803 50.422c.094-.5.188-.984.297-1.484.391-1.641.859-3.25 1.484-4.766.172-.422.422-.828.609-1.234 1.531-3.297 3.547-6.313 6.094-8.875 5.609-5.578 13.25-9.016 21.797-9.016 8.531 0 16.188 3.438 21.797 9.016 5.594 5.625 9.031 13.266 9.031 21.813 0 8.531-3.438 16.188-9.031 21.781-5.609 5.594-13.266 9.031-21.797 9.047-8.547-.016-16.188-3.453-21.797-9.047-2.547-2.531-4.563-5.547-6.094-8.844-.188-.406-.438-.797-.609-1.234-.625-1.531-1.094-3.141-1.484-4.797-.125-.469-.203-.953-.297-1.438-.313-1.766-.547-3.578-.547-5.469 0-1.875.234-3.672.547-5.453m-61.672-16.359c5.609-5.578 13.25-9.016 21.797-9.016 9.75-.016 18.359 4.547 24.016 11.641a49 49 0 0 0-1.906 5.656c-.141.438-.234.891-.344 1.344a48 48 0 0 0-.922 4.516c-.078.531-.188 1.094-.25 1.641-.234 1.969-.391 3.984-.391 6.031 0 2.063.156 4.063.391 6.047.063.547.172 1.078.25 1.625.234 1.531.547 3.047.922 4.516.109.469.203.906.344 1.344a49 49 0 0 0 1.906 5.656c-5.656 7.078-14.266 11.641-24.016 11.641-8.547-.016-16.203-3.453-21.797-9.047-5.609-5.594-9.031-13.25-9.047-21.781.016-8.549 3.453-16.189 9.047-21.814m261.25 264.531-16.031-20.031a54.25 54.25 0 0 1-11.891-33.875v-54.297c0-29.953-24.266-54.25-54.234-54.25H133.771c-29.938 0-54.234 24.297-54.234 54.25v54.297a54.16 54.16 0 0 1-11.891 33.875l-16.031 20.031V181.516c.016-20.672 8.406-39.359 21.969-52.953 13.594-13.578 32.281-21.969 52.953-21.969h258.922c20.672 0 39.359 8.391 52.953 21.969 13.594 13.594 21.969 32.281 21.969 52.953z"/></svg>
