<svg xmlns="http://www.w3.org/2000/svg" width="512" height="512" viewBox="0 0 512 512"><path d="M440.918 326.298v116.958H71.08v-116.96H0v151.34C0 496.612 15.89 512 35.594 512h440.812C496.092 512 512 496.628 512 477.636v-151.34ZM262.436 4.508l101.768 118.956s15.484 14.14-1.308 14.14H305.55v173.168s2.296 8.438-10.858 8.438h-80.72c-9.466 0-9.254-7.106-9.254-7.106V141.176h-52.932c-20.374 0-5.032-14.808-5.032-14.808S233.34 15.18 245.434 3.516c8.686-8.454 17.02.992 17.02.992Z" fill="currentColor"/></svg>
