<svg xmlns="http://www.w3.org/2000/svg" viewBox="0 0 512 512"><style>path{fill:#000}@media (prefers-color-scheme:dark){path{fill:#fff}}</style><path d="M441.432 171.312c60.976-32.394 77.624-46.31 68.046-50.889-97.768-22.306-229.298-41.746-277.896 18.87-14.921 18.606-20.896 58.372-28.492 91.336-21.398-20.835-36.403-37.183-40.703-42.159-26.3-30.451-52.93-49.08-88.912-40.314-32.89 8.009-34.571 39.608-68.196 54.889-9.428 4.293-5.284 7.536 5.006 7.153 30.878-1.148 65.187 4.571 72.047 28.589 5.374 18.81 18.869 108.067 97.784 152.673 78.914 44.606 164.689 6.868 178.409 6.868 13.721 0 94.392 25.398 92.064 8.571-9.157-66.32 43.443-121.217 21.151-111.504-27.816 12.121-118.364 52.044-145.82 34.886-.323-.202-.638-.42-.961-.63 44.921-46.624 35.757-115.452 116.473-158.339"/></svg>
