<svg width="512" height="512" viewBox="0 0 512 512"><style>path{fill:#000;stroke: #000;}@media (prefers-color-scheme: dark){path{fill:#fff;stroke: #fff;}}</style><path style="color:currentColor;stroke-linecap:square;-inkscape-stroke:none" class="frame" d="M 0,75 V 437 H 232.334 L 255.15,414.963 V 413.323 L 256,414.143 256.85,413.323 V 414.963 L 279.666,437 H 512 V 75 H 278.691 L 256.85,96.096 C 256.853,96.94 257.04,98.186 256.096,97.043 255.336,97.505 254.954,97.887 255.164,96.68 254.9,95.181 253.091,94.424 252.189,93.236 L 233.31,75 Z M 46.246,121.246 H 465.754 V 390.754 H 46.246 Z M 241.19531,95.738281 V 414.72461 H 273.19531 V 95.738281 Z M 257.195,95.739 V 414.725 M 336,256 C 336,300.18274 300.18274,336 256,336 211.81726,336 176,300.18274 176,256 176,211.81726 211.81726,176 256,176 300.18274,176 336,211.81726 336,256 Z M 336,256 A 80,80 0 0 1 256,336 80,80 0 0 1 176,256 80,80 0 0 1 256,176 80,80 0 0 1 336,256 Z" /></svg>
