<svg xmlns="http://www.w3.org/2000/svg" width="512" height="512" viewBox="0 0 512 512"><path d="M256 2 128 35.242h64V56h128V35.242h64Zm12.021 72.998L139.314 75A11.315 11.313 0 0 0 128 86.313v339.375A11.315 11.313 0 0 0 139.314 437h233.372A11.315 11.313 0 0 0 384 425.688V190.953a11.315 11.313 0 0 0-.064-.246 11.315 11.313 0 0 0-1.399-5.207 11.315 11.313 0 0 0-.148-.297 11.315 11.313 0 0 0-1.702-2.25L276.025 78.311a11.315 11.313 0 0 0-2.127-1.577 11.315 11.313 0 0 0-.337-.25 11.315 11.313 0 0 0-3.33-1.267 11.315 11.313 0 0 0-1.51-.03 11.315 11.313 0 0 0-.7-.189m-117.39 22.627h106.076v93.328l.004.016a11.315 11.313 0 0 0 1.357 5.056 11.315 11.313 0 0 0 .444.871 11.315 11.313 0 0 0 3.566 3.567 11.315 11.313 0 0 0 .87.441 11.315 11.313 0 0 0 5.06 1.358l.013.004h93.348v212.109H150.631Zm128.707 15.994 66.033 66.022h-66.033ZM87.242 128 54 256l33.242 128v-64H108V192H87.242Zm335.516 0v64H402v128h20.758v64L456 256ZM192 456v20.758h-64L256 510l128-33.242h-64V456Z" fill="currentColor"/></svg>
