<svg xmlns="http://www.w3.org/2000/svg" viewBox="0 0 512 512"><style>path{fill:#000}@media (prefers-color-scheme:dark){path{fill:#fff}}</style><path id="yen" d="M256.453 0h-68.824l-59.188 175.338L69.277 0H.453l69.43 205.723H10.658v77.951H92.05v50.804H10.657v77.931H92.05V512h72.794v-99.591h81.392v-77.931h-81.392v-50.804h81.392v-77.951h-59.214Z" style="stroke-width:.78532"/><path id="zero" d="M336.56 411.04q18.36 20.4 44.2 20.4t44.2-20.4q17-19.04 27.88-59.84 10.2-38.76 10.2-95.2 0-39.44-4.76-68L314.8 370.24q9.52 26.52 21.76 40.8m115.6 36.72q-29.24 25.16-71.4 25.16t-71.4-25.16-44.2-73.44Q249.52 324 249.52 256q0-65.28 15.64-115.6 14.96-48.96 44.2-74.8 29.24-26.52 71.4-26.52t71.4 26.52q29.24 25.84 44.2 74.8Q512 190.72 512 256q0 68-15.64 118.32-14.96 48.28-44.2 73.44m-3.4-299.2q-8.84-28.56-23.8-46.24-18.36-21.76-44.2-21.76t-44.2 21.76q-17 19.72-27.88 61.2-10.2 38.76-10.2 92.48 0 43.52 6.12 77.52Z"/></svg>
