<svg xmlns="http://www.w3.org/2000/svg" width="512" height="512" viewBox="0 0 512 512"><style>path{fill:#000;}@media(prefers-color-scheme:dark){path{fill:#fff;}}</style><path d="M511.32.722c.64.683.68 5.62.68 62.69v61.928l-3.92 4.053c-2.16 2.248-21.48 21.994-42.92 43.947s-39 40.014-39.08 40.175c-.04.16 1.8 3.492 4.12 7.425 4.6 7.746 4.92 8.79 2.88 9.753-.6.28-4.76 1.765-9.2 3.29s-16.08 5.459-25.84 8.79-18.16 6.06-18.64 6.06c-.6 0-3.16-1.806-6.88-4.816-3.24-2.649-6.04-4.776-6.16-4.696-.12.04-5.08 5.499-11 12.121-56.88 63.733-108.2 120.484-125.04 138.303-5.8 6.14-6 6.301-8.44 6.984-8.76 2.448-24.24 10.194-49.68 24.803-31.48 18.1-80.16 48.562-130.12 81.432-7.36 4.816-13.8 8.87-14.36 8.99-.84.241-1.6-.36-5.76-4.535-3.76-3.772-4.76-5.017-4.76-5.86 0-.922 13.72-14.97 84.88-86.97 46.64-47.239 85.12-85.888 85.44-85.888.36 0 2.44.883 4.64 1.966 5.36 2.65 9.04 3.412 14.6 3.13 4.72-.24 7.76-1.083 12.24-3.41 4.04-2.088 9.08-7.265 11.28-11.56 3.96-7.625 4.6-15.772 1.92-23.558-2.84-8.308-9.72-14.93-18.6-17.94-3.72-1.244-11.16-1.566-15.36-.602-10.24 2.247-18.84 10.675-21.44 20.91-1.6 6.18-.88 13.284 2 19.826 1.16 2.609 1.2 2.93.68 3.733-.52.762-28.76 29.418-140.88 142.838C17 485.867 9.48 493.252 8.8 493.252c-1.08 0-8.8-7.385-8.8-8.388 0-.361 1.2-2.288 2.72-4.295 6.48-8.749 31.56-46.596 47.16-71.238 39.44-62.249 66.4-110.29 72.76-129.755.76-2.368.8-2.368 8.96-8.99 25.6-20.75 54.36-45.271 86.4-73.687 25.8-22.916 62.4-56.228 62.4-56.83 0-.12-2.92-2.609-6.48-5.458-7.6-6.06-7.92-6.341-7.92-7.345 0-.401 6.2-11.358 13.76-24.361 12.32-21.231 13.84-23.64 14.8-23.76.72-.08 3.56 1.084 8.64 3.532 4.2 2.047 7.76 3.612 8 3.532.2-.04 17.12-17.178 37.6-38.048s39.56-40.214 42.36-43.064L396.28 0h57.2c54.92 0 57.24.04 57.84.722"/></svg>
