<svg xmlns="http://www.w3.org/2000/svg" width="400" height="400"><path d="M318 11.576c-5.84 40.154-16.195 79.155-18 113-18.191.008-45.184-1.357-60-8.999 2.202-34.89 10.536-71.735 15-103.001 20.67-2.459 43.618-1.053 63-1zm-78 114c19.3 1.608 38.395 5.696 56 8-1.055 29.472-10.925 52.329-13 78-15.509-.591-42.18 2.13-53-9 1.151-24.633 7.3-53.768 10-77zm129-3c20.08 21.109 39.278 68.075 31 93-5.514 5.218-11.808 6.95-19.234 7.14-4.193-.212-6.363-.57-9.766-3.14-3.458-43.268-30.583-83.101-40-120 8.17-3.563 32.413 17.563 38 23zm-131 92c11.012 1.883 22.127 2.192 32 5 .236 11.431-1.21 22.625-.687 33.188l.107 2.865c.248 5.31.875 9.911 2.58 14.947 1.495 4.485 1.875 8.327 1 13-3.78 7.346-9.565 12.565-15.738 17.887-5 4.67-7.572 10.52-10.215 16.727-1.847 4.21-3.96 8.29-6.047 12.386h-2c2.53-18.993 3.8-39.317 8-57 3-2.187 3-2.187 6-4 1.323-2.935 1.323-2.935 1-6-1.373-2.54-1.373-2.54-4-4-3.584-.5-3.584-.5-7 0-3.023 4.052-4.34 11.22 1 13-3.38 19.441-4.488 40.233-9 58.001l-3-1 .14-2.028c.487-12.947-2.467-25.821-9.14-36.973l-1.688-2.875-1.312-2.125c-3.153-5.25-2.8-11.085-2-17 1.948-4.594 4.473-8.472 8-12 6.402-13.304 7.738-29.435 12-42z"/><path d="M155 95.576c-3.333 3.225-4.257 5.56-4.563 10.063-9.285 32.08-26.781 56.736-40.374 82.25-29.976 37.562-50.565 58.6-67.792 72.508C26.367 252.37 9.161 243.012 0 239.576v6c10.44 7.832 26.547 11.11 35.798 18.6-7.915 10.458-26.383 15.741-36.645 18.307L0 285.576c16.576-5.533 26.197-10.318 38.667-16.023 4.298-2.77 5.647-.31 8.646 1.148 58.226 35.144 114.97 46.79 176.687 58.876v-2c-58.858-18.388-119.125-34.842-167.4-58.985-2.077-1.318-6.308-3.302-8.261-4.804 30.278-16.346 67.325-47.904 89.235-70.845 16.625-20.623 36.968-44.208 47.426-65.367l3.313-1.062c3.687-.938 3.687-.938 6.562-3.25 2.18-2.757 3.125-4.183 3.125-7.688-11.03-9.315-24.747-16.107-43-20z"/></svg>