<?xml version="1.0" encoding="UTF-8" standalone="no"?>
<svg
   width="512"
   height="512"
   version="1.1"
   id="svg4152"
   sodipodi:docname="narou-2.svg"
   inkscape:version="1.2.2 (b0a8486541, 2022-12-01)"
   xmlns:inkscape="http://www.inkscape.org/namespaces/inkscape"
   xmlns:sodipodi="http://sodipodi.sourceforge.net/DTD/sodipodi-0.dtd"
   xmlns="http://www.w3.org/2000/svg"
   xmlns:svg="http://www.w3.org/2000/svg">
  <defs
     id="defs4156" />
  <sodipodi:namedview
     id="namedview4154"
     pagecolor="#ffffff"
     bordercolor="#666666"
     borderopacity="1.0"
     inkscape:showpageshadow="2"
     inkscape:pageopacity="0.0"
     inkscape:pagecheckerboard="0"
     inkscape:deskcolor="#d1d1d1"
     showgrid="false"
     inkscape:zoom="0.59"
     inkscape:cx="95.762712"
     inkscape:cy="200.84746"
     inkscape:window-width="1920"
     inkscape:window-height="1022"
     inkscape:window-x="0"
     inkscape:window-y="36"
     inkscape:window-maximized="1"
     inkscape:current-layer="svg4152" />
  <path
     id="path4283"
     d="M 365.84261,53.007441 C 352.18725,52.94294 338.32794,53.276764 325.19179,54.83939 319.51787,94.576727 308.92505,141.40353 306.12623,185.74675 324.9579,195.45931 359.26703,197.19543 382.38843,197.18527 384.68266,154.17017 397.84426,104.60193 405.2671,53.568444 392.94949,53.534764 379.49798,53.071941 365.84261,53.007441 Z M 198.08811,160.32785 C 193.85174,164.42665 192.67794,167.39368 192.289,173.11674 180.48743,213.88862 158.24808,245.22513 140.97089,277.65199 102.87032,325.39118 76.702141,352.12917 54.806012,369.80545 34.591464,359.60358 12.721358,347.71094 1.0774022,343.34398 V 350.96964 C 14.347013,360.92368 34.820679,365.08937 46.579028,374.60874 36.518783,387.90027 13.043367,394.61423 -1.0273772e-7,397.87548 L 1.0774022,401.80747 C 22.146085,394.77534 34.375998,388.69329 50.225812,381.44255 55.688722,377.92204 57.401493,381.04911 61.213328,382.90215 135.22064,427.56821 207.34514,442.36842 285.78964,457.72906 V 455.18716 C 210.97903,431.81705 134.37683,410.90565 73.017586,380.22126 70.377645,378.54615 65.001452,376.02372 62.519121,374.11476 101.00353,353.33991 148.09091,313.23296 175.93929,284.07623 197.07026,257.86554 222.92672,227.89001 236.21921,200.9981 L 240.42952,199.64772 C 245.11583,198.45557 245.11646,198.45557 248.77069,195.51715 251.54156,192.01315 252.74269,190.20142 252.74269,185.74675 238.72316,173.90792 221.28832,165.27564 198.08811,160.32785 Z M 423.96525,164.91765 C 423.16738,164.96805 422.43959,165.1286 421.79058,165.41163 433.75992,212.30819 468.2368,262.93387 472.63205,317.92507 476.95738,321.1914 479.71506,321.6472 485.04451,321.91664 494.48322,321.67516 502.48362,319.47308 509.49211,312.84129 520.01374,281.16302 495.61237,221.47173 470.08997,194.64337 463.43252,188.16514 435.93299,164.16151 423.96525,164.91765 Z M 306.12623,198.45621 C 302.69443,227.98279 294.87883,265.01184 293.41587,296.31899 307.16847,310.46461 341.06833,307.00638 360.78081,307.75751 363.41821,275.13111 375.96334,246.08104 377.30429,208.62377 354.92771,205.69551 330.65722,200.49989 306.12623,198.45621 Z M 303.58416,311.57035 C 298.16699,327.53976 296.46888,348.04142 288.33172,364.95004 283.84877,369.43394 280.6394,374.36268 278.16342,380.20139 277.14659,387.71903 276.69791,395.13501 280.7055,401.80747 L 282.37373,404.50822 284.51861,408.16219 C 293.00022,422.33576 296.75567,438.6975 296.13667,455.15241 L 295.95793,457.72906 299.77105,459 C 305.50596,436.41787 306.91427,409.99359 311.21038,385.28517 304.42305,383.02289 306.09699,373.91275 309.93934,368.76288 314.2812,368.12741 314.2812,368.12741 318.8366,368.76288 322.17561,370.61846 322.17561,370.61846 323.92074,373.84666 324.33129,377.74211 324.33129,377.74211 322.64971,381.47234 318.8366,383.77656 318.8366,383.77656 315.02348,386.55612 309.68514,409.03022 308.07091,434.86097 304.85519,459 H 307.39727 C 310.04992,453.79422 312.73547,448.60784 315.08307,443.25716 318.44241,435.36841 321.71132,427.93393 328.06651,421.99861 335.9126,415.23466 343.26592,408.60192 348.07045,399.26557 349.1826,393.32646 348.6996,388.44347 346.7994,382.74328 344.63229,376.34282 343.83525,370.49484 343.52003,363.74613 L 343.38349,360.10457 C 342.71874,346.67959 344.5573,332.45323 344.25733,317.92507 331.7084,314.35625 317.5808,313.96353 303.58416,311.57035 Z"
     style="stroke-width:1.27099" />
</svg>
