<svg xmlns="http://www.w3.org/2000/svg" width="512" height="512" viewBox="0 0 512 512"><defs><path id="a" d="M-102.322-50.323h721.638v338.671h-721.638z"/></defs><path fill="currentColor" d="M139.315 75A11.315 11.313 0 0 0 128 86.313v339.375A11.315 11.313 0 0 0 139.315 437h233.37A11.315 11.313 0 0 0 384 425.688V190.953a11.315 11.313 0 0 0-.065-.245 11.315 11.313 0 0 0-1.397-5.208 11.315 11.313 0 0 0-.149-.297 11.315 11.313 0 0 0-1.701-2.25L276.025 78.311a11.315 11.313 0 0 0-2.127-1.577 11.315 11.313 0 0 0-.337-.25 11.315 11.313 0 0 0-3.33-1.268 11.315 11.313 0 0 0-1.51-.029 11.315 11.313 0 0 0-.699-.188Zm11.315 22.625h106.077v93.328l.004.015a11.315 11.313 0 0 0 1.357 5.057 11.315 11.313 0 0 0 .443.871 11.315 11.313 0 0 0 3.567 3.566 11.315 11.313 0 0 0 .87.443 11.315 11.313 0 0 0 5.06 1.356l.014.005h93.348v212.109H150.63Zm128.708 15.995 66.034 66.02h-66.034Z" style="stroke-width:.707106"/><path d="M384 35.242h-64V56H192V35.242h-64L256 2zM384 476.758h-64V456H192v20.758h-64L256 510zM87.242 384v-64H108V192H87.242v-64L54 256zM422.758 384v-64H402V192h20.758v-64L456 256z" style="font-style:normal;font-weight:400;font-size:256px;line-height:1.25;font-family:sans-serif;letter-spacing:0;word-spacing:0;white-space:pre;shape-inside:url(#a);fill:#000;fill-opacity:1;stroke:none;stroke-width:.411952"/></svg>