<svg xmlns="http://www.w3.org/2000/svg" width="512" height="512" viewBox="0 0 512 512"><path d="M36.301 117.277h439.348V398.74H36.301z" style="opacity:1;fill:#fff;fill-opacity:1;stroke:#000;stroke-width:0;stroke-linecap:square;stroke-linejoin:miter;stroke-miterlimit:4;stroke-dasharray:none;stroke-opacity:1"/><circle cx="256" cy="256" r="80" style="opacity:1;fill:red;fill-opacity:1;stroke:#000;stroke-width:0;stroke-linecap:square;stroke-linejoin:miter;stroke-miterlimit:4;stroke-dasharray:none;stroke-opacity:1"/><path d="M257.195 95.739v318.986" style="fill:red;stroke:#000;stroke-width:31.7853;stroke-linecap:butt;stroke-linejoin:miter;stroke-dasharray:none;stroke-opacity:1"/><path d="M0 75v362h232.334l22.816-22.037v-1.64l.85.82.85-.82v1.64L279.666 437H512V75H278.691L256.85 96.096c.003.844.19 2.09-.754.947-.76.462-1.142.844-.932-.363-.264-1.499-2.073-2.256-2.975-3.444L233.31 75zm46.246 46.246h419.508v269.508H46.246z" style="color:#000;fill:#000;stroke-linecap:square;-inkscape-stroke:none"/><path d="M34.273 14.99h72.705v44.281H34.273z" style="opacity:1;fill:none;fill-opacity:1;stroke:none;stroke-width:20;stroke-linecap:square;stroke-linejoin:miter;stroke-miterlimit:4;stroke-dasharray:none;stroke-opacity:1"/></svg>