<svg xmlns="http://www.w3.org/2000/svg" version="1.0" width="256" height="256" viewBox="0 0 192 192" id="svg10"><style type="text/css" id="style2">@media (prefers-color-scheme:light){g{fill:#000}#face,#ear{fill:#fff}}@media (prefers-color-scheme:dark){g{fill:#fff}#face,#ear{fill:#000}}</style><path style="fill:#000000;stroke-width:1.08990574" d="M24.129 168.237c-2.677-2.677-2.68-3.01-.113-9.524l2.067-5.244-6.323-1.864c-22.59-6.658-24.078-30.901-4.128-67.288 7.563-13.794 13.236-21.844 15.862-22.509 3.042-.77 7.893 2.224 7.893 4.872 0 1.063-2.9 6.642-6.444 12.397-18.834 30.578-24.094 53.888-13.446 59.586 1.049.562 4.114 1.33 6.812 1.71l4.904.688 5.337-12.843c7.296-17.558 19.11-41.914 27.638-56.983 19.637-34.697 35.728-51.568 50.567-53.022 19.87-1.946 31.431 19.943 38.514 72.913.38 2.847.969 5.177 1.307 5.177.339 0 7.131-3.443 15.095-7.65 13.166-6.957 14.738-7.533 17.328-6.353 3.558 1.621 4.668 5.587 2.473 8.834-1.296 1.916-13.022 8.34-34.167 18.715-.087.043.256 6.37.761 14.059.505 7.69 1.015 20.641 1.133 28.781.192 13.249.004 14.954-1.787 16.264-2.987 2.184-6.695 1.771-8.607-.959-1.245-1.778-1.719-5.33-1.78-13.351-.113-15.003-1.482-36.29-2.391-37.2-.412-.412-4.56 1.09-9.22 3.337-30.767 14.846-62.907 26.532-84.92 30.878l-9.446 1.865-2.612 7.084c-3.638 9.87-7.607 12.33-12.307 7.63zm38.146-32.713c18.874-5.402 37.834-12.938 66.757-26.534 9.69-4.554 12.807-6.52 12.807-8.074 0-3.129-2.987-23.686-4.865-33.484-4.625-24.124-13.556-39.007-22.261-37.095-14.306 3.142-40.006 41.447-63.512 94.665-7.055 15.972-6.851 14.935-2.781 14.156 1.926-.369 8.16-2.004 13.855-3.634z" id="path825"/></svg>