<svg xmlns="http://www.w3.org/2000/svg" width="512" height="512" viewBox="0 0 512 512"><path d="M0 0v512h512V0Zm8 8h496v496H8Zm106.396 39.074v36.977H25.213V99.93h32.41c12.399 34.803 29.364 64.604 51.986 88.53-23.274 19.143-51.986 33.28-86.789 43.286 3.263 3.915 8.484 11.747 10.442 15.662 35.238-11.31 64.602-26.537 88.529-46.984 24.362 21.534 54.163 37.414 90.488 46.767 2.828-4.567 8.048-12.18 11.963-15.879-35.455-8.265-65.038-23.275-88.965-43.287 22.84-23.274 40.241-51.987 53.075-88.095h33.498V84.05h-90.705V47.075Zm271.897 0v14.572h-73.086V74.48h73.086v14.575h-65.69v12.615h65.69v15.662h-87.225v13.05H490.92v-13.05h-88.096V101.67h67.215V89.055h-67.215V74.48h76.35V61.646h-76.35V47.074ZM75.459 99.93h93.969c-11.311 30.887-26.537 56.12-46.766 76.35-20.664-21.1-36.327-46.768-47.203-76.35m254.28 44.156v103.539h16.097v-36.107h99.84v17.619c0 3.262-1.088 4.132-4.785 4.35-3.48.217-16.533.218-29.801-.217 2.175 3.915 4.57 9.353 5.44 13.486 17.836 0 29.364 0 36.542-2.176 6.743-2.175 8.918-6.308 8.918-15.226v-85.268Zm16.097 12.617h99.84v15.443h-99.84Zm0 27.19h99.84v15.878h-99.84Zm-224.697 80.699v19.142H40.004v68.301c0 31.105-1.522 73.739-18.924 103.756 3.698 1.74 10.442 6.307 13.27 9.135 18.489-31.758 21.316-79.393 21.316-112.89v-53.73h164.879v-14.572h-82.658v-19.142Zm264.937 0v22.623h-82.875v43.937H319.3v-28.93h42.416c-3.698 31.758-14.14 49.812-61.123 58.948 3.48 3.263 7.613 9.789 8.918 13.922 51.552-11.746 64.602-34.369 69.17-72.87h31.757v43.288c0 16.096 4.57 20.445 23.928 20.445h31.322c14.574 0 19.143-5.437 20.883-26.101-4.35-1.088-10.877-3.263-14.357-5.874-.653 15.444-1.958 17.62-8.266 17.62H435.89c-8.048 0-9.354-.87-9.354-6.09v-43.287h44.156v24.144h16.748v-39.152h-84.615v-22.623Zm-255.148 35.674v15.66h-63.3v13.05h63.3v14.575H75.895v66.125h55.033v15.226H58.275v13.705h72.653v26.319h15.443v-26.319h75.914v-13.705h-75.914v-15.226h57.424V343.55H146.37v-14.574h68.736v-13.051h-68.736v-15.66Zm-40.46 54.379h40.46v16.314h-40.46Zm55.903 0h42.197v16.314h-42.197ZM90.47 381.617h40.459v16.748h-40.46Zm55.902 0h42.197v16.748h-42.197Zm175.754 2.61v15.01h63.951v43.937h-86.789v15.01H490.92v-15.01h-88.096v-43.938h69.172v-15.01Z" fill="currentColor"/></svg>
