<svg xmlns="http://www.w3.org/2000/svg" id="svg6" width="512" height="512" viewBox="0 0 512 512"><path fill="currentColor" d="M255.999 7C115.113 7 1 121.245 1 262.298c0 112.97 72.994 208.39 174.356 242.214 12.751 2.236 17.53-5.424 17.53-12.125 0-6.064-.316-26.169-.316-47.549-64.07 11.806-80.646-15.637-85.744-29.999-2.87-7.338-15.303-29.996-26.139-36.06-8.924-4.787-21.674-16.595-.319-16.914 20.082-.32 34.426 18.508 39.207 26.168 22.95 38.614 59.606 27.766 74.27 21.062 2.229-16.594 8.924-27.765 16.256-34.146-56.739-6.385-116.025-28.402-116.025-126.055 0-27.763 9.88-50.739 26.136-68.61-2.55-6.384-11.475-32.55 2.55-67.654 0 0 21.357-6.703 70.125 26.167 20.4-5.744 42.075-8.615 63.75-8.615s43.35 2.87 63.75 8.615c48.77-33.188 70.124-26.167 70.124-26.167 14.027 35.104 5.1 61.27 2.55 67.654 16.258 17.871 26.138 40.527 26.138 68.61 0 97.972-59.606 119.672-116.344 126.055 9.246 7.978 17.214 23.296 17.214 47.23 0 34.147-.32 61.59-.32 70.208 0 6.7 4.782 14.679 17.532 12.125C438.006 470.685 511 374.95 511 262.298 511 121.245 396.887 7 255.999 7"/></svg>
