<svg xmlns="http://www.w3.org/2000/svg" width="512" height="512" viewBox="0 0 512 512"><style>path{fill:#000}@media (prefers-color-scheme:dark){path{fill:#fff}}</style><path d="M16 75A16 16 0 0 0 0 91v330a16 16 0 0 0 16 16h480a16 16 0 0 0 16-16V91a16 16 0 0 0-16-16Zm16 32h448v298H32Z"/><path d="M174.702 117.393a63.15 63.15 0 0 0-63.153 63.152 63.15 63.15 0 0 0 63.153 63.152 63.15 63.15 0 0 0 63.152-63.152 63.15 63.15 0 0 0-63.152-63.152m0 138.607a138.6 138.6 0 0 0-69.304 18.57 138.61 138.61 0 0 0-69.304 120.037H313.31a138.61 138.61 0 0 0-69.304-120.037A138.6 138.6 0 0 0 174.702 256"/><path d="M262.519 128.136h198.39v32h-198.39zm.34 52.158h198.39v32h-198.39zm-.679 52.159h198.39v32H262.18z"/></svg>
