<svg xmlns="http://www.w3.org/2000/svg" width="512" height="512" viewBox="0 0 512 512"><path d="M64.738 76a59.998 60.263 0 0 0-21.093 3.758C31.679 84.033 21.818 91.719 14.09 102.79 6.7 113.505 3 125.466 3 138.676v234.648c0 17.14 5.989 31.97 17.941 44.461C33.261 429.932 47.87 436 64.738 436c17.25 0 31.843-6.067 43.809-18.201 12.319-12.505 18.465-27.335 18.465-44.475v-42.666c.13-9.241 9.507-6.812 14.254 0 8.866 15.599 27.686 29.006 49.603 28.926 21.905-.093 40.108-11.072 49.602-28.926 3.597-4.303 13.731-11.645 14.777 0v42.666c0 17.14 5.976 31.97 17.928 44.461C285.507 429.932 300.103 436 316.986 436c17.236 0 31.844-6.067 43.809-18.201 12.319-12.505 18.465-27.335 18.465-44.475V138.676c0-13.21-3.87-25.171-11.598-35.885-7.402-11.085-17.08-18.758-29.033-23.033C331.593 77.248 324.557 76 317.52 76c-19 0-35.007 7.502-48.033 22.504l-62.652 74.435c-1.4 1.076-6.068 9.268-15.98 9.268-9.887 0-14.02-8.192-15.432-9.254l-63.19-74.45C99.576 83.504 83.74 76 64.738 76m390.436.014q-22.165 0-37.99 16.064-15.3 15.533-15.3 38.035 0 22.503 15.3 38.567 15.825 15.531 37.99 15.53 22.166.001 38.004-15.53Q509 152.615 509 130.113t-15.822-38.035q-15.838-16.064-38.004-16.064m.523 118.924q-22.165 0-37.99 16.064-15.822 16.078-15.822 38.58V381.9q0 22.503 15.822 38.567Q433.544 436 455.697 436q22.18 0 37.48-15.533Q509 404.402 509 381.9V249.582q0-22.515-15.822-38.58-15.314-16.065-37.48-16.065" fill="currentColor"/></svg>
