<?xml version="1.0" encoding="UTF-8" standalone="no"?>
<svg
   version="1.0"
   width="512"
   height="512"
   viewBox="0 0 512 512"
   id="svg1"
   sodipodi:docname="extension.svg"
   inkscape:version="1.2.2 (b0a8486541, 2022-12-01)"
   xmlns:inkscape="http://www.inkscape.org/namespaces/inkscape"
   xmlns:sodipodi="http://sodipodi.sourceforge.net/DTD/sodipodi-0.dtd"
   xmlns="http://www.w3.org/2000/svg"
   xmlns:svg="http://www.w3.org/2000/svg"
   xmlns:rdf="http://www.w3.org/1999/02/22-rdf-syntax-ns#"
   xmlns:cc="http://creativecommons.org/ns#"
   xmlns:dc="http://purl.org/dc/elements/1.1/">
  <metadata
     id="metadata876">
    <rdf:RDF>
      <cc:Work
         rdf:about="">
        <dc:format>image/svg+xml</dc:format>
        <dc:type
           rdf:resource="http://purl.org/dc/dcmitype/StillImage" />
      </cc:Work>
    </rdf:RDF>
  </metadata>
  <defs
     id="defs878" />
  <sodipodi:namedview
     pagecolor="#ffffff"
     bordercolor="#666666"
     borderopacity="1"
     objecttolerance="10"
     gridtolerance="10"
     guidetolerance="10"
     inkscape:pageopacity="0"
     inkscape:pageshadow="2"
     inkscape:window-width="1920"
     inkscape:window-height="1022"
     showgrid="false"
     inkscape:pagecheckerboard="true"
     inkscape:zoom="1.5410156"
     inkscape:cx="276.11661"
     inkscape:cy="257.94677"
     inkscape:window-x="0"
     inkscape:window-y="36"
     inkscape:window-maximized="1"
     inkscape:current-layer="svg1"
     showguides="true"
     id="namedview884"
     inkscape:showpageshadow="2"
     inkscape:deskcolor="#d1d1d1">
    <sodipodi:guide
       position="256,256"
       orientation="0,1"
       inkscape:locked="false"
       inkscape:label=""
       inkscape:color="rgb(0,0,255)"
       id="guide880" />
    <sodipodi:guide
       position="256,256"
       orientation="-1,0"
       inkscape:locked="false"
       inkscape:label=""
       inkscape:color="rgb(0,0,255)"
       id="guide882" />
  </sodipodi:namedview>
  <path
     id="rect233"
     style="fill:none;stroke:#000000;stroke-width:32;stroke-linejoin:round;stroke-miterlimit:8;stroke-dasharray:none"
     d="M 180.11523,16 C 180.11523,26.666667 180.11523,37.333333 180.11523,48 182.45233,41.314833 180.44579,30.286038 181.11523,21.933214 180.27978,20.681159 182.68277,15.377551 180.11523,16 Z M 255.5,16 C 255.5,26.666667 255.5,37.333333 255.5,48 257.8371,41.314833 255.83056,30.286038 256.5,21.933214 255.66455,20.681159 258.06754,15.377551 255.5,16 Z M 330.88477,16 C 330.88477,26.666667 330.88477,37.333333 330.88477,48 333.22187,41.314833 331.21533,30.286038 331.88477,21.933214 331.04932,20.681159 333.45231,15.377551 330.88477,16 Z M 64.714844,64.714844 C 64.714844,192.23828 64.714844,319.76172 64.714844,447.28516 192.23828,447.28516 319.76172,447.28516 447.28516,447.28516 447.28516,319.76172 447.28516,192.23828 447.28516,64.714844 319.76172,64.714844 192.23828,64.714844 64.714844,64.714844 Z M 16,180.11523 C 22.685167,182.45233 33.713962,180.44579 42.066786,181.11523 56.754297,180.46201 33.854623,179.69986 29.173988,180.11523 24.782659,180.11523 20.391329,180.11523 16,180.11523 Z M 464,180.11523 C 470.68517,182.45233 481.71396,180.44579 490.06679,181.11523 504.7543,180.46201 481.85462,179.69986 477.17399,180.11523 472.78266,180.11523 468.39133,180.11523 464,180.11523 Z M 16,255.5 C 22.685167,257.8371 33.713962,255.83056 42.066786,256.5 56.754297,255.84678 33.854623,255.08463 29.173988,255.5 24.782659,255.5 20.391329,255.5 16,255.5 Z M 464,255.5 C 470.68517,257.8371 481.71396,255.83056 490.06679,256.5 504.7543,255.84678 481.85462,255.08463 477.17399,255.5 472.78266,255.5 468.39133,255.5 464,255.5 Z M 16,330.88477 C 22.685167,333.22187 33.713962,331.21533 42.066786,331.88477 56.754297,331.23155 33.854623,330.4694 29.173988,330.88477 24.782659,330.88477 20.391329,330.88477 16,330.88477 Z M 464,330.88477 C 470.68517,333.22187 481.71396,331.21533 490.06679,331.88477 504.7543,331.23155 481.85462,330.4694 477.17399,330.88477 472.78266,330.88477 468.39133,330.88477 464,330.88477 Z M 180.11523,464 C 180.11523,474.66667 180.11523,485.33333 180.11523,496 182.45233,489.31483 180.44579,478.28604 181.11523,469.93321 180.27978,468.68116 182.68277,463.37755 180.11523,464 Z M 255.5,464 C 255.5,474.66667 255.5,485.33333 255.5,496 257.8371,489.31483 255.83056,478.28604 256.5,469.93321 255.66455,468.68116 258.06754,463.37755 255.5,464 Z M 330.88477,464 C 330.88477,474.66667 330.88477,485.33333 330.88477,496 333.22187,489.31483 331.21533,478.28604 331.88477,469.93321 331.04932,468.68116 333.45231,463.37755 330.88477,464 Z" />
</svg>
