<svg xmlns="http://www.w3.org/2000/svg" width="512" height="512" viewBox="0 0 512 512"><path d="M251.325 376.19c-16.898 1.95-31.036 14.799-35.367 32.057-1.4 5.555-1.316 14.46.213 20.1 1.995 7.59 5.094 13.144 10.486 18.784 3.822 4.028 7.133 6.445 11.93 8.735 11.507 5.512 24.074 5.512 35.58 0 4.797-2.29 8.11-4.707 11.93-8.735 5.392-5.64 8.492-11.195 10.487-18.785 1.529-5.64 1.614-14.544.212-20.099-4.415-17.555-18.468-30.106-35.96-32.1-4.289-.466-5.053-.466-9.511.043m-10.02-92.65c-21.44 2.459-41.735 9.88-60.077 21.964-5.35 3.562-12.057 8.735-15.879 12.297-1.953 1.824-2.038 2.036-1.825 3.605.127.975.594 2.544 1.104 3.519 2.462 5.13 17.025 20.82 25.559 27.604 4.203 3.35 7.6 5.174 8.873 4.75.425-.128 2.25-1.485 4.119-3.011 10.147-8.48 23.606-15.01 36.216-17.513 14.69-2.925 29.125-2.12 42.881 2.333 8.874 2.883 20.337 9.201 27.045 14.883 3.482 2.968 4.034 3.138 6.708 2.163 7.176-2.672 26.833-22.304 31.08-31.082 2.462-5.173 1.995-6.19-5.902-12.509-19.828-15.943-44.75-26.205-70.394-29.046-7.09-.763-22.46-.763-29.508.043m-1.061-120.637c-36.64 2.374-72.05 12.424-104.232 29.555-11.124 5.936-25.644 15.053-35.325 22.177-4.755 3.519-20.634 17.342-21.61 18.827-.807 1.23-.552 4.197.552 6.36 2.505 4.919 14.647 18.233 24.115 26.375 8.322 7.208 13.799 10.134 16.261 8.82.637-.297 4.034-3.096 7.515-6.191 7.558-6.615 10.275-8.693 19.19-14.545 28.065-18.402 56.426-28.622 89.755-32.353 9.128-1.018 30.696-1.018 39.825 0 33.328 3.731 61.69 13.95 89.754 32.353 8.916 5.852 11.633 7.93 19.19 14.545 3.524 3.095 6.879 5.851 7.515 6.19 2.463 1.357 7.897-1.61 16.261-8.82 9.468-8.14 21.611-21.455 24.116-26.374 1.104-2.163 1.359-5.13.552-6.36-.977-1.485-16.855-15.308-21.61-18.827-12.525-9.244-32.82-21.499-44.708-27.011-17.79-8.226-30.654-12.89-47.722-17.3-24.667-6.361-53.793-9.075-79.394-7.421m4.033-110.715c-46.533 1.484-92.769 12-135.65 30.785-8.916 3.901-25.899 12.424-34.178 17.173-12.61 7.209-32.183 19.887-41.82 27.053-7.345 5.47-31.206 26.502-32.013 28.24-.934 1.909-.85 2.587.552 5.513 3.312 6.827 18.936 22.22 27.427 26.969 3.057 1.696 5.095 2.035 7.09 1.272.553-.212 6.157-4.919 12.44-10.474 6.327-5.512 13.29-11.406 15.497-13.06 5.435-4.028 19.19-13.23 26.62-17.767 39.826-24.297 83.726-39.52 128.985-44.778 14.733-1.696 19.318-1.95 37.15-1.95s22.418.254 37.15 1.95c46.49 5.386 91.24 21.244 132 46.686 16.982 10.601 24.752 16.368 38.975 28.792 5.816 5.13 11.124 9.583 11.803 9.922 3.439 1.781 8.406-.424 16.813-7.463 7.854-6.53 16.77-16.706 18.214-20.692 1.698-4.792 1.146-5.513-13.714-18.488-6.835-5.937-14.775-12.594-17.62-14.714-6.198-4.622-22.714-15.647-31.29-20.862-61.775-37.781-132.211-56.396-204.43-54.107" fill="currentColor"/></svg>
